<svg xmlns="http://www.w3.org/2000/svg" xmlns:xlink="http://www.w3.org/1999/xlink" version="1.1" x="0px" y="0px" viewBox="0 0 100 100" style="enable-background:new 0 0 100 100;" xml:space="preserve"><g><path d="M54.5,45.9V25.9c5.6,0.9,10.2,3,13.6,6.7l0.7,0.9l5.4-5.2l-0.9-0.9C68.5,22.7,62,19.9,54.2,19v-8h-6.7v8   c-11.9,0.9-20.4,7.6-20.4,16.5c0,11,11,14.3,20.4,16.5v22.5c-8.7-0.9-14.3-5.4-16.9-8l-0.9-0.9l-5.2,5.2l0.6,0.7   c5.2,5.6,13,8.9,22.1,9.5v8H54v-7.8c15.4-1.3,20.8-9.8,20.8-17.5C75.3,51.3,63.1,48,54.5,45.9z M67.2,64.1c0,4.3-3.5,9.3-12.8,10.4   V53.7C62.5,55.9,67.2,58.5,67.2,64.1z M35.6,35.3c0-5,5-8.9,12.1-9.5v18.4C39.9,42.2,35.6,39.8,35.6,35.3z"></path></g></svg>