<svg xmlns="http://www.w3.org/2000/svg" xmlns:xlink="http://www.w3.org/1999/xlink" viewBox="0 0 75 75" version="1.1" x="0px" y="0px"><g><path style="" d="M 33.808594 58.691406 L 68.550781 58.691406 C 70.277344 58.691406 71.675781 60.089844 71.675781 61.816406 C 71.675781 63.539062 70.277344 64.941406 68.550781 64.941406 L 33.808594 64.941406 C 32.082031 64.941406 30.683594 63.539062 30.683594 61.816406 C 30.683594 60.089844 32.082031 58.691406 33.808594 58.691406 Z M 33.808594 58.691406 " stroke="none" fill-rule="nonzero" fill="rgb(0%,0%,0%)" fill-opacity="1"></path><path style="" d="M 33.808594 47.9375 L 52.925781 47.9375 C 54.652344 47.9375 56.050781 49.339844 56.050781 51.0625 C 56.050781 52.789062 54.652344 54.1875 52.925781 54.1875 L 33.808594 54.1875 C 32.082031 54.1875 30.683594 52.789062 30.683594 51.0625 C 30.683594 49.339844 32.082031 47.9375 33.808594 47.9375 Z M 33.808594 47.9375 " stroke="none" fill-rule="nonzero" fill="rgb(0%,0%,0%)" fill-opacity="1"></path><path style="" d="M 33.808594 37.675781 L 41.988281 37.675781 C 43.710938 37.675781 45.113281 39.074219 45.113281 40.800781 C 45.113281 42.523438 43.710938 43.925781 41.988281 43.925781 L 33.808594 43.925781 C 32.085938 43.925781 30.683594 42.523438 30.683594 40.800781 C 30.683594 39.074219 32.082031 37.675781 33.808594 37.675781 Z M 33.808594 37.675781 " stroke="none" fill-rule="nonzero" fill="rgb(0%,0%,0%)" fill-opacity="1"></path><path style="" d="M 35.1875 23.191406 C 33.664062 24.71875 31.1875 24.71875 29.664062 23.191406 L 24.054688 17.585938 L 24.054688 68.308594 C 24.054688 70.46875 22.308594 72.214844 20.148438 72.214844 C 17.992188 72.214844 16.242188 70.46875 16.242188 68.308594 L 16.242188 17.582031 L 10.632812 23.191406 C 9.109375 24.71875 6.632812 24.71875 5.109375 23.191406 C 3.585938 21.664062 3.585938 19.191406 5.109375 17.667969 L 20.148438 2.628906 L 22.914062 5.390625 L 35.1875 17.667969 C 36.714844 19.195312 36.714844 21.667969 35.1875 23.191406 Z M 35.1875 23.191406 " stroke="none" fill-rule="nonzero" fill="rgb(0%,0%,0%)" fill-opacity="1"></path></g></svg>