<svg width="60" height="60" xmlns="http://www.w3.org/2000/svg">
 <title>Slice 1</title>
Created with Sketch (http://www.bohemiancoding.com/sketch)
 <g>
  <title>background</title>
  <rect fill="none" id="canvas_background" height="402" width="582" y="-1" x="-1"/>
 </g>
 <g>
  <title>Layer 1</title>
  <g transform="rotate(179.75619506835938 30,30.000000000000004) " id="svg_1" fill-rule="evenodd" fill="none">
   <g id="svg_2" fill="#000000">
    <path fill="#FFFFFF" id="svg_3" d="m30,0c-16.5378,0 -30,13.452 -30,29.9898c0,16.5474 13.4622,30.0102 30,30.0102c16.5378,0 30,-13.4628 30,-30.0102c0,-16.5378 -13.4622,-29.9898 -30,-29.9898l0,0zm0,54.5424c-13.5348,0 -24.5424,-11.0082 -24.5424,-24.5526c0,-13.5348 11.0076,-24.5322 24.5424,-24.5322c13.5348,0 24.5424,10.9974 24.5424,24.5322c0,13.545 -11.0076,24.5526 -24.5424,24.5526l0,0zm0,0"/>
    <path fill="#FFFFFF" id="svg_4" d="m30.69235,42.31291c0.9228,0.91612 2.41944,0.91612 3.34099,0c0.92279,-0.9157 0.92279,-2.40219 0,-3.31871l-9.14018,-8.9942l9.14059,-8.99389c0.92279,-0.9157 0.92279,-2.4026 0,-3.31871c-0.46098,-0.45786 -1.06625,-0.6874 -1.6707,-0.6874c-0.60444,0 -1.20971,0.22954 -1.6707,0.6874l-10.72579,10.6534c-0.92321,0.91611 -0.92321,2.40218 0,3.31871l10.72579,10.6534zm0,0"/>
   </g>
  </g>
 </g></svg>