<svg fill="#868686" xmlns:dc="http://purl.org/dc/elements/1.1/" xmlns:cc="http://creativecommons.org/ns#" xmlns:rdf="http://www.w3.org/1999/02/22-rdf-syntax-ns#" xmlns:svg="http://www.w3.org/2000/svg" xmlns="http://www.w3.org/2000/svg" xmlns:sodipodi="http://sodipodi.sourceforge.net/DTD/sodipodi-0.dtd" xmlns:inkscape="http://www.inkscape.org/namespaces/inkscape" version="1.1" x="0px" y="0px" viewBox="0 0 473.319 560.15033" enable-background="new 0 0 595 842" xml:space="preserve"><path style="" d="M 83.996,0 C 75.975,0 69.411,6.5618 69.411,14.5845 l 0,75.218 c 0,8.0204 6.562,14.4494 14.585,14.4494 l 2.703,0 c 7.951,0 14.45,-6.5 14.45,-14.4494 l 0,-75.218 C 101.149,6.6334 94.719,0 86.699,0 l -2.703,0 z m 304.517,0 c -8.02,0 -14.584,6.5618 -14.584,14.5845 l 0,75.218 c 0,8.0204 6.561,14.4494 14.584,14.4494 l 2.565,0 c 8.02,0 14.585,-6.5 14.585,-14.4494 l 0,-75.218 C 405.663,6.6334 399.101,0 391.078,0 l -2.565,0 z M 37.677,46.5893 C 16.865,46.5893 0,63.5888 0,84.4009 l 0,437.9384 c 0,20.81095 16.865,37.81105 37.677,37.81105 l 397.695,0 c 20.881,0 37.947,-17.0001 37.947,-37.81105 l 0,-437.9384 c 0,-20.8121 -17.066,-37.8116 -37.947,-37.8116 l -17.69,0 0,52.9356 c 0,11.2015 -9.055,20.3912 -20.256,20.3912 l -15.26,0 c -11.201,0 -20.39,-9.1897 -20.39,-20.3912 l 0,-52.9356 -248.477,0 0,52.9356 c 0,11.2015 -9.054,20.3912 -20.256,20.3912 l -15.394,0 c -11.201,0 -20.257,-9.1897 -20.257,-20.3912 l 0,-52.9356 -19.715,0 z m -0.277,156.2422 398.372,0 c 3.25,-0.072 5.807,2.5582 5.807,5.8074 l 0,288.7178 c 0,3.1804 -2.557,5.8079 -5.807,5.8079 l -398.372,0 c -3.249,0 -5.807,-2.6275 -5.807,-5.8079 l 0,-288.7178 c 0,-3.1805 2.558,-5.8074 5.807,-5.8074 z m 126.129,44.1585 0,54.0171 54.017,0 0,-54.0171 -54.017,0 z m 94.124,0 0,54.0171 53.881,0 0,-54.0171 -53.881,0 z m 93.988,0 0,54.0171 54.016,0 0,-54.0171 -54.016,0 z m -282.101,81.0248 0,54.016 54.016,0 0,-54.016 -54.016,0 z m 93.989,0 0,54.016 54.017,0 0,-54.016 -54.017,0 z m 94.123,0 0,54.016 53.882,0 0,-54.016 -53.882,0 z m 93.989,0 0,54.016 54.016,0 0,-54.016 -54.016,0 z m -282.101,81.0248 0,54.0166 54.016,0 0,-54.0166 -54.016,0 z m 93.989,0 0,54.0166 54.017,0 0,-54.0166 -54.017,0 z m 94.123,0 0,54.0166 53.882,0 0,-54.0166 -53.882,0 z m -226.058,110.7333 409.984,0 0,3.3743 -409.984,0 0,-3.3743 z m 0,20.25625 409.984,0 0,3.3743 -409.984,0 0,-3.3743 z" clip-rule="evenodd" fill="#868686" fill-rule="evenodd"></path></svg>