<svg fill="#6A6A6A" xmlns="http://www.w3.org/2000/svg" xmlns:xlink="http://www.w3.org/1999/xlink" viewBox="0 0 60 51" version="1.1" x="0px" y="0px"><title>070-Gallery</title><desc>Created with Sketch.</desc><g stroke="none" stroke-width="1" fill="none" fill-rule="evenodd" stroke-linecap="round"><g transform="translate(1.000000, 1.000000)" stroke="#6A6A6A" stroke-width="2"><path d="M49,49 L1,49 C0.448,49 0,48.552 0,48 L0,9 C0,8.448 0.448,8 1,8 L49,8 C49.552,8 50,8.448 50,9 L50,48 C50,48.552 49.552,49 49,49 L49,49 Z"></path><path d="M0,34 L18,18"></path><path d="M4,7.9995 L4,4.9995 C4,4.4475 4.448,3.9995 5,3.9995 L53,3.9995 C53.552,3.9995 54,4.4475 54,4.9995 L54,43.9995 C54,44.5525 53.552,44.9995 53,44.9995 L50,44.9995"></path><path d="M8,3.9995 L8,0.9995 C8,0.4475 8.448,-0.0005 9,-0.0005 L57,-0.0005 C57.552,-0.0005 58,0.4475 58,0.9995 L58,39.9995 C58,40.5525 57.552,40.9995 57,40.9995 L54,40.9995"></path><path d="M18,18 L36,34"></path><path d="M43,26 L36,34"></path><path d="M50,34 L43,26"></path><path d="M38,19 C38,20.657 36.657,22 35,22 C33.343,22 32,20.657 32,19 C32,17.343 33.343,16 35,16 C36.657,16 38,17.343 38,19 L38,19 Z"></path></g></g></svg>