<svg fill="#FFFFFF" xmlns="http://www.w3.org/2000/svg" xmlns:xlink="http://www.w3.org/1999/xlink" version="1.1" x="0px" y="0px" viewBox="0 0 48 48" enable-background="new 0 0 48 48" xml:space="preserve"><g><path d="M40.1,4.8c-0.5,0-1,0-1.5,0.1c-1.1-0.9-2.4-1.3-3.8-1.2L23.9,4.6c-0.2,0-0.5,0.1-0.6,0.3l-23,23c-0.4,0.4-0.4,1,0,1.4   L15,44c0.2,0.2,0.5,0.3,0.7,0.3s0.5-0.1,0.7-0.3l23-23c0.2-0.2,0.3-0.4,0.3-0.6l0.8-10.9c0.1-0.9-0.1-1.8-0.5-2.7c0,0,0.1,0,0.1,0   c3.2,0,5.9,2.1,5.9,4.8c0,0.6,0.4,1,1,1s1-0.4,1-1C48,7.9,44.5,4.8,40.1,4.8z M38.5,9.3l-0.8,10.5l-22,22L2.4,28.6l22-22l10.5-0.8   c0.4,0,0.7,0,1,0.1c-1.3,0.7-2.4,1.7-3,3c-1.3-0.4-2.9-0.1-3.9,0.9c-0.7,0.7-1.1,1.7-1.1,2.7s0.4,2,1.1,2.7   c0.7,0.7,1.7,1.1,2.7,1.1c1,0,2-0.4,2.7-1.1c0.7-0.7,1.1-1.7,1.1-2.7c0-1-0.4-1.9-1-2.6c0.6-1.2,1.8-2.2,3.3-2.7   C38.3,7.8,38.6,8.5,38.5,9.3z M33.2,12.6c0.2,0,0.3,0,0.4-0.1c0,0.5-0.2,1-0.6,1.3c-0.7,0.7-1.9,0.7-2.7,0   c-0.4-0.4-0.6-0.8-0.6-1.3c0-0.5,0.2-1,0.6-1.3c0.4-0.4,0.8-0.6,1.3-0.6c0.2,0,0.4,0,0.5,0.1c0,0.3-0.1,0.6-0.1,0.9   C32.2,12.1,32.7,12.6,33.2,12.6z"></path><path d="M12.5,23c-0.8,0-1.5,0.2-2.1,0.8c-0.6,0.6-0.9,1.3-0.8,2.2c0,0.8,0.4,1.6,1,2.2c0.6,0.6,1.3,0.9,2.2,1   c0.8,0,1.5-0.3,2.1-0.8c0.6-0.6,0.9-1.3,0.8-2.2c0-0.8-0.4-1.6-1-2.2C14,23.4,13.3,23,12.5,23z M13.6,27.1   c-0.2,0.2-0.5,0.3-0.9,0.3c-0.3,0-0.7-0.2-0.9-0.5c-0.3-0.3-0.4-0.6-0.5-0.9c0-0.3,0.1-0.6,0.3-0.8c0.2-0.2,0.5-0.3,0.9-0.3   c0.3,0,0.7,0.2,0.9,0.5c0.3,0.3,0.4,0.6,0.5,0.9C13.9,26.6,13.8,26.9,13.6,27.1z"></path><polygon points="15.9,18.7 18.5,35.6 20.3,33.8 17.7,16.9  "></polygon><path d="M23.6,23.1c-0.8,0-1.5,0.3-2.1,0.8c-0.6,0.6-0.9,1.3-0.8,2.2c0,0.8,0.4,1.6,1,2.2c0.6,0.6,1.3,0.9,2.2,1   c0.8,0,1.5-0.3,2.1-0.8c0.6-0.6,0.9-1.3,0.8-2.2c0-0.8-0.4-1.6-1-2.2C25.2,23.5,24.5,23.2,23.6,23.1z M24.8,27.2   c-0.2,0.2-0.5,0.3-0.9,0.3c-0.3,0-0.7-0.2-0.9-0.5c-0.3-0.3-0.4-0.6-0.5-0.9c0-0.3,0.1-0.6,0.3-0.8c0.2-0.2,0.5-0.3,0.9-0.3   c0.3,0,0.7,0.2,0.9,0.5c0.3,0.3,0.4,0.6,0.5,0.9C25.1,26.7,25,27,24.8,27.2z"></path></g></svg>