<svg fill="#3985DC" xmlns="http://www.w3.org/2000/svg" xmlns:xlink="http://www.w3.org/1999/xlink" version="1.1" x="0px" y="0px" viewBox="0 0 100 100" enable-background="new 0 0 100 100" xml:space="preserve"><path d="M5,61.791c0-28.809,26.598-46.362,30.729-48.55c2.992-1.63,5.762-2.725,7.66-2.725c1.653,0,2.747,0.804,2.747,2.189  c0,1.384-1.385,3.015-2.747,4.109c-3.819,2.747-14.539,17.017-14.539,30.461c0,3.551,1.921,6.834,4.109,7.95  c2.479,1.362,14.002,3.841,14.002,18.357c0,8.509-6.856,15.9-16.459,15.9C17.886,89.483,5,79.903,5,61.791z"></path><path d="M53.014,61.791c0-28.809,26.621-46.362,30.73-48.55c3.016-1.63,5.762-2.725,7.682-2.725c1.652,0,2.725,0.804,2.725,2.189  c0,1.384-1.361,3.015-2.725,4.109c-3.84,2.747-14.537,17.017-14.537,30.461c0,3.551,1.92,6.834,4.109,7.95  C83.477,56.588,95,59.066,95,73.583c0,8.509-6.879,15.9-16.482,15.9C65.922,89.483,53.014,79.903,53.014,61.791z"></path></svg>