<svg xmlns="http://www.w3.org/2000/svg" xmlns:xlink="http://www.w3.org/1999/xlink" version="1.1" x="0px" y="0px" viewBox="0 0 100 100" enable-background="new 0 0 100 100" xml:space="preserve"><g><path d="M50,5C25.187,5,5,25.187,5,50s20.187,45,45,45s45-20.187,45-45S74.813,5,50,5z M50,91.537   C27.097,91.537,8.463,72.903,8.463,50S27.097,8.463,50,8.463S91.537,27.097,91.537,50S72.903,91.537,50,91.537z"></path><path d="M50.003,54.795c9.596,0,16.12-7.783,16.12-17.382c0-9.601-6.524-17.381-16.12-17.381c-9.602,0-16.126,7.78-16.126,17.381   C33.877,47.012,40.401,54.795,50.003,54.795z"></path><path d="M63.022,53.654c-3.442,3.091-7.948,4.918-13.02,4.918c-5.074,0-9.583-1.827-13.025-4.918   c-8.187,4.477-13.839,12.976-14.267,22.859C29.634,83.637,39.306,88.077,50,88.077s20.366-4.44,27.292-11.563   C76.864,66.63,71.209,58.131,63.022,53.654z"></path></g></svg>