<svg xmlns="http://www.w3.org/2000/svg" data-name="Layer 1" viewBox="0 0 100 100" x="0px" y="0px"><title>fc</title><path d="M50,0A50,50,0,1,0,85.36,14.64,49.85,49.85,0,0,0,50,0ZM83.15,83.15a46.88,46.88,0,0,1-66.3-66.3A46.88,46.88,0,0,1,83.15,83.15Z"></path><path d="M77.44,22.56a1.56,1.56,0,0,0-2.21,0L50,47.79,24.77,22.56a1.56,1.56,0,0,0-2.21,2.21L47.79,50,22.56,75.23a1.56,1.56,0,0,0,2.21,2.21L50,52.21,75.23,77.44a1.56,1.56,0,0,0,2.21-2.21L52.21,50,77.44,24.77A1.56,1.56,0,0,0,77.44,22.56Z"></path></svg>