<svg fill="#3E545F" xmlns="http://www.w3.org/2000/svg" data-name="Layer 1" viewBox="0 0 100 100" x="0px" y="0px"><title>Artboard 8</title><path d="M1.83,96.26V91a16.06,16.06,0,0,1,9.91-14.83,10.95,10.95,0,1,1,12.3,0,16.09,16.09,0,0,1,5.86,4.2,21.7,21.7,0,0,1,11.81-12,14.76,14.76,0,1,1,16.59,0,21.7,21.7,0,0,1,11.81,12A16.09,16.09,0,0,1,76,76.12a10.95,10.95,0,1,1,12.31,0A16.06,16.06,0,0,1,98.17,91v5.31a2.26,2.26,0,0,1-2.26,2.26H4.08A2.26,2.26,0,0,1,1.83,96.26ZM47.33,33h5.34a2.63,2.63,0,0,0,2.63-2.63V15.77h1.85a2.15,2.15,0,0,0,1.75-3.41l-7.15-10a2.15,2.15,0,0,0-3.5,0l-7.15,10a2.15,2.15,0,0,0,1.75,3.41H44.7V30.37A2.63,2.63,0,0,0,47.33,33Zm20.34,5.17,3.78,3.78a2.63,2.63,0,0,0,3.72,0L85.49,31.62l1.31,1.31a2.15,2.15,0,0,0,3.65-1.17l2-12.11A2.15,2.15,0,0,0,90,17.17l-12.12,2a2.15,2.15,0,0,0-1.17,3.65L78,24.12,67.66,34.45A2.63,2.63,0,0,0,67.66,38.17ZM23.85,20.63a2.15,2.15,0,0,0-1.7-1.47L10,17.17a2.15,2.15,0,0,0-2.47,2.48l2,12.11a2.15,2.15,0,0,0,3.65,1.17l1.31-1.31L24.84,41.95a2.63,2.63,0,0,0,3.72,0l3.78-3.78a2.63,2.63,0,0,0,0-3.72L22,24.12l1.31-1.31A2.15,2.15,0,0,0,23.85,20.63Z"></path></svg>