<svg fill="#3e545f" xmlns="http://www.w3.org/2000/svg" xmlns:xlink="http://www.w3.org/1999/xlink" version="1.1" x="0px" y="0px" viewBox="0 0 100 100" style="enable-background:new 0 0 100 100;" xml:space="preserve"><g><path d="M49,91c5.3,0,9.7-3.9,10.4-9H38.6C39.3,87.1,43.7,91,49,91z"></path><path d="M24.5,42.1c0,14.4-2.6,21.4-5.4,24.9h59.9c-2.8-3.4-5.4-10.4-5.4-24.9c0-15.4-9.2-21.7-16.4-24.3c0.6-1.2,0.9-2.5,0.9-3.8   c0-5-4-9-9-9s-9,4-9,9c0,1.3,0.3,2.6,0.9,3.8C33.7,20.4,24.5,26.7,24.5,42.1z M49,9c2.8,0,5,2.2,5,5c0,0.8-0.2,1.6-0.5,2.3l1.8,0.9   c-0.1,0-0.2-0.1-0.4-0.1c-4.8-1.5-9.3-0.6-11-0.2l0.8-0.4C44.2,15.7,44,14.9,44,14C44,11.2,46.2,9,49,9z"></path><path d="M14.6,73.5c0,3,2.5,5.5,5.5,5.5h28.7h0.5h28.7c3.1,0,5.5-2.5,5.5-5.5c0-0.9-0.2-1.7-0.6-2.5H15.2   C14.8,71.8,14.6,72.6,14.6,73.5z"></path></g></svg>