<svg fill="#3E545F" xmlns="http://www.w3.org/2000/svg" xmlns:xlink="http://www.w3.org/1999/xlink" viewBox="0 0 60 46" version="1.1" x="0px" y="0px"><title>23 -Neighbourhood- (house, home, property, real, estate)</title><desc>Created with Sketch.</desc><g stroke="none" stroke-width="1" fill="none" fill-rule="evenodd" stroke-linecap="round" stroke-linejoin="round"><g transform="translate(-343.000000, -616.000000)" stroke="#3E545F" stroke-width="2"><g transform="translate(344.000000, 617.000000)"><polygon points="25 44 33 44 33 28 25 28"></polygon><path d="M29,36 L30,36"></path><path d="M14,34 L14,24"></path><path d="M7,29 L21,29"></path><polygon points="20 6 0 18 0 23 20 11 40 23 40 18"></polygon><polygon points="20 11 3 21.2 3 44 37 44 37 21.2"></polygon><polygon points="7 34 21 34 21 24 7 24"></polygon><path d="M3,40 L25,40"></path><polygon points="43 38 51 38 51 22 43 22"></polygon><path d="M47,30 L48,30"></path><polygon points="38 0 24 8.4 28.167 10.9 38 5 58 17 58 12"></polygon><polygon points="38 5 28.167 10.9 40 18 40 23 37 21.2 37 38 55 38 55 15.2"></polygon><path d="M33,40 L37,40"></path><path d="M37,34 L43,34"></path><path d="M51,34 L55,34"></path><path d="M6,34 L22,34"></path></g></g></g></svg>