<svg fill="#3E545F" xmlns="http://www.w3.org/2000/svg" viewBox="0 0 68 68" x="0px" y="0px"><path fill="#3E545F" fill-rule="evenodd" d="M659,362 C659,363.104569 659.895431,364 661,364 L721,364 C722.104569,364 723,363.104569 723,362 C723,354.229707 719.476684,351 712,351 L670,351 C662.523316,351 659,354.229707 659,362 Z M689,321.049117 C673.087915,321.839088 663,332.07859 663,346 C663,347.104569 663.895431,348 665,348 L717,348 C718.104569,348 719,347.104569 719,346 C719,332.07859 708.912085,321.839088 693,321.049117 L693,319 L698.009222,319 C698.556414,319 699,318.556647 699,317.990631 L699,316.009369 C699,315.45191 698.555369,315 697.999128,315 L684.000872,315 C683.448106,315 683,315.443353 683,316.009369 L683,317.990631 C683,318.54809 683.450975,319 683.990778,319 L689,319 L689,321.049117 Z M691.990631,308 C692.54809,308 693,307.544239 693,306.997527 L693,297.002473 C693,296.448823 692.556647,296 691.990631,296 L690.009369,296 C689.45191,296 689,296.455761 689,297.002473 L689,306.997527 C689,307.551177 689.443353,308 690.009369,308 L691.990631,308 Z M666.662697,314.26367 C667.035618,313.849314 666.996109,313.209571 666.586074,312.845096 L659.089784,306.181727 C658.674546,305.812627 658.041342,305.842954 657.662697,306.26367 L656.337303,307.73633 C655.964382,308.150686 656.003891,308.790429 656.413926,309.154904 L663.910216,315.818273 C664.325454,316.187373 664.958658,316.157046 665.337303,315.73633 L666.662697,314.26367 Z M714.662697,315.73633 C715.035618,316.150686 715.67975,316.182748 716.089784,315.818273 L723.586074,309.154904 C724.001313,308.785803 724.041342,308.157046 723.662697,307.73633 L722.337303,306.26367 C721.964382,305.849314 721.32025,305.817252 720.910216,306.181727 L713.413926,312.845096 C712.998687,313.214197 712.958658,313.842954 713.337303,314.26367 L714.662697,315.73633 Z" transform="translate(-656 -296)"></path></svg>