<svg xmlns:dc="http://purl.org/dc/elements/1.1/" xmlns:cc="http://creativecommons.org/ns#" xmlns:rdf="http://www.w3.org/1999/02/22-rdf-syntax-ns#" xmlns:svg="http://www.w3.org/2000/svg" xmlns="http://www.w3.org/2000/svg" xmlns:sodipodi="http://sodipodi.sourceforge.net/DTD/sodipodi-0.dtd" xmlns:inkscape="http://www.inkscape.org/namespaces/inkscape" version="1.1" x="0px" y="0px" viewBox="0 0 100 100"><g transform="translate(0,-952.36218)"><path style="color:#000000;enable-background:accumulate;" d="m 49.968801,962.36218 c -10.49426,0 -18.968753,8.7092 -18.968753,19.5 0,2.4781 0.71496,5.6332 1.531253,7.8125 l 17.46875,36.68752 17.46875,-36.68752 c 0.82087,-2.1801 1.53125,-5.3333 1.53125,-7.8125 0,-10.7908 -8.53686,-19.5 -19.03125,-19.5 z m 0.0312,11 c 4.41828,0 8,3.5817 8,8 0,4.4183 -3.58172,8 -8,8 -4.41828,0 -8,-3.5817 -8,-8 0,-4.4183 3.58172,-8 8,-8 z m -19.000002,41.00002 -5,28 48.000002,0 -5,-28 -11.0625,0 c -2.64257,5.5432 -5.28312,11.0874 -7.9375,16.625 -2.65684,-5.5364 -5.29419,-11.0821 -7.9375,-16.625 l -11.062502,0 z" fill="#000000" fill-opacity="1" fill-rule="nonzero" stroke="none" marker="none" visibility="visible" display="inline" overflow="visible"></path></g></svg>
