<svg fill="#FFFFFF" xmlns="http://www.w3.org/2000/svg" data-name="Layer 1" viewBox="0 0 100 100" x="0px" y="0px"><title>Artboard 5</title><path d="M99.26,75.32V84.1H.74V74.79a6.55,6.55,0,0,1,2.37-5.06A107,107,0,0,1,22.47,57.31a.6.6,0,0,0,.34-.54V50.5a15.07,15.07,0,0,1-1.88-5.14c-.72-.06-1.66-1.07-2.68-4.66-1.31-4.63-.08-5.55,1.11-5.54-.63-2.7-2.24-12.1,4.76-16.37a3.76,3.76,0,0,1-1.33-2.86s8,.9,11.84.11,8,2.24,8.67,5.15c0,0,7.83,0,4.79,14,1.22-.05,2.55.79,1.21,5.54-1,3.6-2,4.61-2.68,4.66a15.07,15.07,0,0,1-1.88,5.14v6.27a.6.6,0,0,0,.34.54,109.61,109.61,0,0,1,14,8.36,28,28,0,0,0,3.63-1.5l.22-.13a2.19,2.19,0,0,0,1-1.84V58.47c-9.87.09-12.78-4.14-12.78-4.14s5.64-.09,5.29-15S62.93,22,65.49,21c7.45-2.83,11.19,1.67,11.19,1.67,8.64-.8,11,8.64,10,19.38S91.48,54.5,91.48,54.5c-4.06,4.14-12.6,3.88-12.6,3.88v1h0v2.85a2.19,2.19,0,0,0,1,1.84l.26.16c3,1.57,9.16,3.2,9.28,3.26a32.56,32.56,0,0,1,5.85,2.21A7,7,0,0,1,99.26,75.32Z"></path></svg>