<svg xmlns="http://www.w3.org/2000/svg" xmlns:xlink="http://www.w3.org/1999/xlink" xmlns:a="http://ns.adobe.com/AdobeSVGViewerExtensions/3.0/" version="1.1" x="0px" y="0px" viewBox="-50.929 -46 1024 1024" enable-background="new -50.929 -46 1024 1024" xml:space="preserve"><path display="none" d="M595.7,31h-405.37c-39.74,0-72.259,31.252-72.259,71.002v726.07c0,39.75,32.52,72.928,72.259,72.928h541.9  c39.76,0,71.841-33.178,71.841-72.928v-590.5L595.7,31z M315.061,152.792c28.81,0,52.17,23.36,52.17,52.17s-23.36,52.17-52.17,52.17  c-28.82,0-52.17-23.36-52.17-52.17S286.241,152.792,315.061,152.792z M221.071,310.552c0-22.69,11.965-42.43,29.725-53.99  c7.53,9.25,17.047,16.91,28.007,22.26c10.96,5.35,23.234,8.39,36.184,8.39c25.97,0,49.122-12.07,64.182-30.89  c17.94,11.39,29.902,31.41,29.902,54.23v42.99c0,11.14-9.091,20.458-20.23,20.458h-147.57c-11.13,0-20.199-9.318-20.199-20.458  V310.552z M571.071,793h-350v-39h350V793z M701.071,655h-480v-39h480V655z M701.071,516h-480v-39h480V516z M652.21,238  c-30.38,0-56.139-25.558-56.139-55.938v-89.08L743.78,238H652.21z"></path><polyline display="none" fill="none" stroke="#000000" stroke-width="40" stroke-miterlimit="10" points="865.071,837 53.071,837   53.071,95 "></polyline><line display="none" fill="none" stroke="#000000" stroke-width="40" stroke-miterlimit="10" x1="185.596" y1="602.365" x2="304.09" y2="473.372"></line><line display="none" fill="none" stroke="#000000" stroke-width="40" stroke-miterlimit="10" x1="365.587" y1="456.873" x2="506.579" y2="506.37"></line><line display="none" fill="none" stroke="#000000" stroke-width="40" stroke-miterlimit="10" x1="572.575" y1="492.871" x2="803.564" y2="291.881"></line><circle display="none" fill="none" stroke="#000000" stroke-width="40" stroke-miterlimit="10" cx="328.991" cy="444.286" r="38"></circle><circle display="none" fill="none" stroke="#000000" stroke-width="40" stroke-miterlimit="10" cx="158.991" cy="631.286" r="38"></circle><circle display="none" fill="none" stroke="#000000" stroke-width="40" stroke-miterlimit="10" cx="542.99" cy="517.286" r="38"></circle><circle display="none" fill="none" stroke="#000000" stroke-width="40" stroke-miterlimit="10" cx="829.99" cy="265.286" r="38"></circle><polyline display="none" fill="none" stroke="#000000" stroke-width="40" stroke-miterlimit="10" points="865.071,837 53.071,837   53.071,95 "></polyline><line display="none" fill="none" stroke="#000000" stroke-width="40" stroke-miterlimit="10" x1="185.596" y1="602.365" x2="304.09" y2="473.372"></line><line display="none" fill="none" stroke="#000000" stroke-width="40" stroke-miterlimit="10" x1="365.587" y1="456.873" x2="427.89" y2="478.745"></line><line display="none" fill="none" stroke="#000000" stroke-width="40" stroke-miterlimit="10" x1="653.692" y1="422.289" x2="803.564" y2="291.881"></line><circle display="none" fill="none" stroke="#000000" stroke-width="40" stroke-miterlimit="10" cx="328.991" cy="444.286" r="38"></circle><circle display="none" fill="none" stroke="#000000" stroke-width="40" stroke-miterlimit="10" cx="158.991" cy="631.286" r="38"></circle><circle display="none" fill="none" stroke="#000000" stroke-width="40" stroke-miterlimit="10" cx="829.99" cy="265.286" r="38"></circle><path display="none" fill="none" stroke="#000000" stroke-width="40" stroke-miterlimit="10" d="M628.771,552.366  c-46.05,46.05-120.7,46.05-166.75,0c-20.549-20.54-31.919-46.78-34.129-73.62c-2.76-33.34,8.62-67.62,34.129-93.13  c46.05-46.05,120.7-46.04,166.75,0c10.87,10.88,19.18,23.35,24.92,36.67C672.25,465.335,663.94,517.196,628.771,552.366z"></path><line display="none" fill="none" stroke="#000000" stroke-width="40" stroke-miterlimit="10" x1="628.771" y1="552.371" x2="706.785" y2="630.385"></line><polyline display="none" fill="none" stroke="#000000" stroke-width="40" stroke-miterlimit="10" points="55.071,95 55.071,837   144.281,837 236.281,837 329.281,837 421.281,837 514.28,837 606.28,837 699.28,837 791.28,837 867.071,837 "></polyline><path display="none" d="M236.071,612.786V837h-92V612.786c0-8.28,6.93-13.786,15.21-13.786h62  C229.561,599,236.071,604.506,236.071,612.786z"></path><path display="none" d="M421.071,458.786V837h-92V458.786c0-8.279,6.93-13.786,15.21-13.786h62  C414.561,445,421.071,450.507,421.071,458.786z"></path><path display="none" d="M606.071,497.786V837h-92V497.786c0-8.28,6.929-13.786,15.209-13.786h62  C599.561,484,606.071,489.506,606.071,497.786z"></path><path display="none" d="M791.071,337.786V837h-92V337.786c0-8.28,6.929-13.786,15.209-13.786h62  C784.561,324,791.071,329.506,791.071,337.786z"></path><polyline display="none" fill="none" stroke="#000000" stroke-width="40" stroke-miterlimit="10" points="60.781,529.286   360.781,321.286 548.78,357.286 740.78,149.286 "></polyline><polyline display="none" fill="none" stroke="#000000" stroke-width="40" stroke-miterlimit="10" points="640.78,150.286   740.28,149.286 739.7,253.572 "></polyline><line display="none" fill="none" stroke="#000000" stroke-width="40" stroke-miterlimit="10" x1="89.071" y1="619" x2="832.071" y2="619"></line><line display="none" fill="none" stroke="#000000" stroke-width="40" stroke-miterlimit="10" x1="341.884" y1="617.97" x2="267.181" y2="911.179"></line><line display="none" fill="none" stroke="#000000" stroke-width="40" stroke-miterlimit="10" x1="579.178" y1="617.97" x2="653.881" y2="911.179"></line><path display="none" fill="none" stroke="#000000" stroke-width="40" stroke-miterlimit="10" d="M800.071,107.479  c0-9.101-7.378-16.479-16.479-16.479H135.551c-9.102,0-16.479,7.378-16.479,16.479v442.043c0,9.101,7.378,16.479,16.479,16.479  h648.041c9.102,0,16.479-7.378,16.479-16.479V107.479z"></path><polyline display="none" fill="none" stroke="#000000" stroke-width="40" stroke-miterlimit="10" points="416.071,49 416.071,20   504.071,20 504.071,49 "></polyline><line display="none" fill="none" stroke="#000000" stroke-width="40" stroke-miterlimit="10" x1="271.663" y1="422.315" x2="344.114" y2="343.445"></line><line display="none" fill="none" stroke="#000000" stroke-width="40" stroke-miterlimit="10" x1="381.715" y1="333.357" x2="467.923" y2="363.621"></line><line display="none" fill="none" stroke="#000000" stroke-width="40" stroke-miterlimit="10" x1="508.274" y1="355.367" x2="649.508" y2="232.477"></line><circle display="none" fill="none" stroke="#000000" stroke-width="40" stroke-miterlimit="10" cx="359.339" cy="325.661" r="23.235"></circle><circle display="none" fill="none" stroke="#000000" stroke-width="40" stroke-miterlimit="10" cx="255.396" cy="439.998" r="23.234"></circle><circle display="none" fill="none" stroke="#000000" stroke-width="40" stroke-miterlimit="10" cx="490.186" cy="370.295" r="23.234"></circle><circle display="none" fill="none" stroke="#000000" stroke-width="40" stroke-miterlimit="10" cx="665.665" cy="216.215" r="23.234"></circle><line display="none" fill="none" stroke="#000000" stroke-width="40" stroke-miterlimit="10" x1="310.071" y1="748" x2="610.071" y2="748"></line><g display="none"><path display="inline" d="M816.071,429.737V430h-391v391.157c-216-0.274-391.141-175.415-391.141-391.42   c0-216.178,174.893-391.42,391.07-391.42S816.071,213.56,816.071,429.737z"></path></g><g display="none"><path display="inline" d="M887.7,501c-0.274,216-175.415,392-391.42,392h-0.209V501H887.7z"></path></g><path display="none" fill="none" stroke="#000000" stroke-width="40" stroke-miterlimit="10" d="M769.912,229.174  c52.85,68.29,84.29,153.97,84.29,247c0,223.13-180.88,404-404,404c-223.12,0-404-180.87-404-404c0-223.121,180.88-404,404-404  c92.6,0,177.93,31.16,246.07,83.56"></path><path display="none" fill="none" stroke="#000000" stroke-width="40" stroke-miterlimit="10" d="M492.542,359.464  c-13.12-4.72-27.26-7.29-42.01-7.29c-68.479,0-124,55.52-124,124c0,68.49,55.52,124,124,124c68.49,0,124-55.51,124-124  c0-15.38-2.8-30.11-7.92-43.701"></path><path display="none" fill="none" stroke="#000000" stroke-width="40" stroke-miterlimit="10" d="M666.792,332.294  c27.43,41.2,43.41,90.68,43.41,143.88c0,143.6-116.41,260-260,260c-143.589,0-260-116.4-260-260c0-143.59,116.41-260,260-260  c52.78,0,101.88,15.72,142.88,42.75"></path><line display="none" fill="none" stroke="#000000" stroke-width="40" stroke-miterlimit="10" x1="430.355" y1="496.193" x2="768.05" y2="158.497"></line><polyline display="none" fill="none" stroke="#000000" stroke-width="40" stroke-miterlimit="10" points="522.071,497 430.071,497   430.071,405 "></polyline><polyline display="none" fill="none" stroke="#000000" stroke-width="40" stroke-miterlimit="10" points="825.071,173 753.071,173   753.071,101 "></polyline><polyline display="none" fill="none" stroke="#000000" stroke-width="40" stroke-miterlimit="10" points="875.071,123 803.071,123   803.071,51 "></polyline><path fill="none" stroke="#000000" stroke-width="60" stroke-miterlimit="10" d="M460.702,467.662  c-98.534,0-178.411-79.878-178.411-178.411s79.876-178.409,178.411-178.409c98.53,0,178.407,79.876,178.407,178.409"></path><path fill="none" stroke="#000000" stroke-width="60" stroke-miterlimit="10" d="M460.7,468.051  c98.532,0,178.409,79.875,178.409,178.407c0,98.533-79.877,178.41-178.409,178.41c-98.533,0-178.409-79.877-178.409-178.41"></path><line fill="none" stroke="#000000" stroke-width="60" stroke-miterlimit="10" x1="459.071" y1="23" x2="459.071" y2="908"></line><circle display="none" fill="none" stroke="#000000" stroke-width="40" stroke-miterlimit="10" cx="461.031" cy="466.036" r="330.573"></circle><line display="none" fill="none" stroke="#000000" stroke-width="40" stroke-miterlimit="10" x1="33.071" y1="467" x2="184.071" y2="467"></line><line display="none" fill="none" stroke="#000000" stroke-width="40" stroke-miterlimit="10" x1="739.071" y1="467" x2="889.071" y2="467"></line><line display="none" fill="none" stroke="#000000" stroke-width="40" stroke-miterlimit="10" x1="461.071" y1="894" x2="461.071" y2="744"></line><line display="none" fill="none" stroke="#000000" stroke-width="40" stroke-miterlimit="10" x1="461.071" y1="189" x2="461.071" y2="38"></line><path display="none" fill="none" stroke="#000000" stroke-width="40" stroke-miterlimit="10" d="M461.032,461.413  c-35.937,0-65.068-29.133-65.068-65.069c0-35.937,29.132-65.069,65.068-65.069c35.935,0,65.067,29.132,65.067,65.069"></path><path display="none" fill="none" stroke="#000000" stroke-width="40" stroke-miterlimit="10" d="M461.031,461.553  c35.936,0,65.068,29.132,65.068,65.069c0,35.936-29.132,65.068-65.068,65.068s-65.067-29.133-65.067-65.068"></path><line display="none" fill="none" stroke="#000000" stroke-width="40" stroke-miterlimit="10" x1="461.071" y1="281" x2="461.071" y2="642"></line><path display="none" fill="none" stroke="#000000" stroke-width="40" stroke-miterlimit="10" d="M751.983,684.053  C680.76,792.521,558.03,864.145,418.572,864.145C198.447,864.145,20,685.698,20,465.572S198.447,66.999,418.572,66.999  c220.126,0,398.573,178.446,398.573,398.573"></path><path display="none" fill="none" stroke="#000000" stroke-width="40" stroke-miterlimit="10" d="M418.574,458.312  c-56.237,0-101.825-45.59-101.825-101.825c0-56.237,45.588-101.824,101.825-101.824c56.234,0,101.821,45.587,101.821,101.824"></path><path display="none" fill="none" stroke="#000000" stroke-width="40" stroke-miterlimit="10" d="M418.574,458.532  c56.234,0,101.821,45.587,101.821,101.823c0,56.233-45.587,101.823-101.821,101.823c-56.237,0-101.825-45.59-101.825-101.823"></path><line display="none" fill="none" stroke="#000000" stroke-width="40" stroke-miterlimit="10" x1="417.071" y1="192" x2="417.071" y2="730"></line><polyline display="none" fill="none" stroke="#000000" stroke-width="40" stroke-miterlimit="10" points="901.401,381.556   817.275,465.683 713.149,401.556 "></polyline><rect x="195.071" y="524" display="none" stroke="#000000" stroke-width="20" stroke-miterlimit="10" width="532" height="90"></rect><polygon display="none" stroke="#000000" stroke-width="20" stroke-miterlimit="10" points="621.569,929 300.492,929 232.897,614   689.164,614 "></polygon><line display="none" fill="none" stroke="#000000" stroke-width="30" stroke-miterlimit="10" x1="460.071" y1="523" x2="460.071" y2="222"></line><line display="none" fill="none" stroke="#000000" stroke-width="30" stroke-miterlimit="10" x1="463.283" y1="447.161" x2="586.44" y2="346.965"></line><line display="none" fill="none" stroke="#000000" stroke-width="30" stroke-miterlimit="10" x1="450.76" y1="357.402" x2="350.564" y2="292.693"></line><path display="none" fill="none" stroke="#000000" stroke-width="30" stroke-miterlimit="10" d="M460.738,90.639  c-16.72,0-30.273-13.554-30.273-30.272s13.554-30.272,30.273-30.272c16.717,0,30.27,13.554,30.27,30.272"></path><path display="none" fill="none" stroke="#000000" stroke-width="30" stroke-miterlimit="10" d="M460.738,90.705  c16.717,0,30.27,13.554,30.27,30.272s-13.553,30.272-30.27,30.272c-16.72,0-30.273-13.554-30.273-30.272"></path><line display="none" fill="none" stroke="#000000" stroke-width="30" stroke-miterlimit="10" x1="460.071" y1="152" x2="460.071" y2="178"></line><line display="none" fill="none" stroke="#000000" stroke-width="30" stroke-miterlimit="10" x1="460.071" y1="3" x2="460.071" y2="31"></line><path display="none" fill="none" stroke="#000000" stroke-width="30" stroke-miterlimit="10" d="M672.777,328.604  c-16.719,0-30.272-13.554-30.272-30.272s13.554-30.272,30.272-30.272s30.271,13.554,30.271,30.272"></path><path display="none" fill="none" stroke="#000000" stroke-width="30" stroke-miterlimit="10" d="M672.777,328.669  c16.719,0,30.271,13.554,30.271,30.272s-13.553,30.272-30.271,30.272c-16.72,0-30.272-13.554-30.272-30.272"></path><line display="none" fill="none" stroke="#000000" stroke-width="30" stroke-miterlimit="10" x1="672.071" y1="390" x2="672.071" y2="416"></line><line display="none" fill="none" stroke="#000000" stroke-width="30" stroke-miterlimit="10" x1="672.071" y1="241" x2="672.071" y2="264"></line><path display="none" fill="none" stroke="#000000" stroke-width="30" stroke-miterlimit="10" d="M265.395,280.593  c-16.719,0-30.272-13.554-30.272-30.272s13.553-30.272,30.272-30.272c16.718,0,30.271,13.554,30.271,30.272"></path><path display="none" fill="none" stroke="#000000" stroke-width="30" stroke-miterlimit="10" d="M265.395,280.659  c16.718,0,30.271,13.554,30.271,30.272c0,16.718-13.553,30.272-30.271,30.272c-16.72,0-30.272-13.554-30.272-30.272"></path><line display="none" fill="none" stroke="#000000" stroke-width="30" stroke-miterlimit="10" x1="265.071" y1="342" x2="265.071" y2="368"></line><line display="none" fill="none" stroke="#000000" stroke-width="30" stroke-miterlimit="10" x1="265.071" y1="193" x2="265.071" y2="220"></line><circle display="none" stroke="#000000" stroke-width="40" stroke-miterlimit="10" cx="461.29" cy="452.649" r="281.783"></circle><path display="none" fill="none" stroke="#000000" stroke-width="40" stroke-miterlimit="10" d="M104.215,407.48  c0-197.101,159.783-356.885,356.885-356.885l0,0c197.102,0,356.885,159.784,356.885,356.885"></path><path display="none" stroke="#000000" stroke-width="40" stroke-miterlimit="10" d="M104.071,536.063  c0,8.802-7.136,15.938-15.938,15.938H41.009c-8.802,0-15.938-7.136-15.938-15.938V372.938c0-8.802,7.136-15.938,15.938-15.938  h47.124c8.802,0,15.938,7.135,15.938,15.938V536.063z"></path><path display="none" stroke="#000000" stroke-width="40" stroke-miterlimit="10" d="M896.071,536.063  c0,8.802-7.136,15.938-15.938,15.938h-47.125c-8.802,0-15.938-7.136-15.938-15.938V372.938c0-8.802,7.136-15.938,15.938-15.938  h47.125c8.802,0,15.938,7.135,15.938,15.938V536.063z"></path><path display="none" stroke="#000000" stroke-width="40" stroke-miterlimit="10" d="M487.071,841.726  c0,21.69-17.584,39.274-39.274,39.274h-27.451c-21.69,0-39.274-17.584-39.274-39.274v-0.451c0-21.69,17.584-39.274,39.274-39.274  h27.451c21.69,0,39.274,17.584,39.274,39.274V841.726z"></path><path display="none" fill="none" stroke="#000000" stroke-width="40" stroke-miterlimit="10" d="M104.405,516.851  c0,158.434,112.382,290.622,261.779,321.192"></path><path display="none" fill="none" stroke="#000000" stroke-width="20" stroke-miterlimit="10" d="M701.341,444.499  c0,147.37-35.75,266.837-79.841,266.837c-0.179,0-0.347-0.132-0.525-0.142c-0.515-0.012-1.019-0.194-1.523-0.194h-0.011  l-14.949-5.868c-0.767-0.555-1.544-1.204-2.3-1.845c-28.028-23.26-50.206-95.961-57.748-188.809  c-0.621-7.605-1.135-15.359-1.556-23.229c-0.104-1.9-0.198-3.819-0.283-5.731c-0.567-12.049-0.883-24.375-0.936-36.897  c-0.01-1.744-0.01-3.479-0.01-5.224c0-1.586,0-3.163,0.021-4.738c0.084-13.595,0.473-26.937,1.146-39.953  c0.42-8.194,0.955-16.262,1.597-24.183c7.49-92.405,29.457-164.882,57.254-188.624c0.042-0.032,0.074-0.063,0.116-0.095  c6.303-5.347,12.911-8.173,19.708-8.173C665.591,177.631,701.341,297.13,701.341,444.499z"></path><path display="none" d="M602.191,703.701L202.607,558.959l-43.536-15.821V345.637l442.771-160.375  c-27.913,23.837-50.025,96.796-57.421,189.727c-0.609,7.564-1.155,15.265-1.555,23.081c-0.693,13.362-1.102,27.083-1.166,41.055  c-0.02,1.576-0.03,3.152-0.03,4.738c0,1.744-0.006,3.478,0.004,5.222c0.053,12.522,0.366,24.845,0.934,36.894  c0.085,1.913,0.177,3.825,0.282,5.726c0.42,7.869,0.934,15.611,1.555,23.217C551.986,607.768,574.163,680.443,602.191,703.701z"></path><path display="none" d="M159.071,347v196H75.747c-16.83,0-30.675-13.939-30.675-30.77V376.712c0-16.83,13.846-29.712,30.675-29.712  H159.071z"></path><path display="none" stroke="#000000" stroke-width="5" stroke-miterlimit="10" d="M598.997,444.505  c0,38.732-22.923,70.133-51.213,70.133c-1.093,0-2.186-0.138-3.257-0.138h-0.084c-0.621-8-1.135-15.357-1.556-23.227  c-0.104-1.901-0.198-3.818-0.283-5.73c-0.567-12.049-0.883-24.374-0.936-36.896c-0.01-1.744-0.01-3.479-0.01-5.223  c0-1.586,0-3.162,0.021-4.738c0.063-13.973,0.452-27.693,1.146-41.056c0.399-7.816,0.903-15.517,1.513-23.081  c0.031,0,0.052-0.01,0.084,0c1.114-0.105,2.228-0.157,3.362-0.157C576.074,374.392,598.997,405.782,598.997,444.505z"></path><line display="none" fill="none" stroke="#000000" stroke-width="40" stroke-miterlimit="10" x1="786.071" y1="443" x2="877.071" y2="443"></line><line display="none" fill="none" stroke="#000000" stroke-width="40" stroke-miterlimit="10" x1="767.2" y1="278.592" x2="840.336" y2="223.778"></line><line display="none" fill="none" stroke="#000000" stroke-width="40" stroke-miterlimit="10" x1="767.2" y1="607.225" x2="840.336" y2="662.037"></line><path display="none" stroke="#000000" stroke-width="20" stroke-miterlimit="10" d="M202.607,558.959l-32.366,181.554  c-1.523,8.562-9.749,14.276-18.321,12.754l-55.868-9.938c-8.573-1.523-14.297-9.55-12.773-18.123L115.699,543h43.373v0.138  L202.607,558.959z"></path><circle display="none" stroke="#000000" stroke-width="20" stroke-miterlimit="10" cx="461.028" cy="119.691" r="67.715"></circle><path display="none" stroke="#000000" stroke-width="20" stroke-miterlimit="10" d="M583.071,256.738v55.8  c0,14.46-11.821,26.462-26.271,26.462H365.261c-14.45,0-26.189-12.002-26.189-26.462v-55.8c0-29.44,15.515-55.07,38.564-70.07l0,0  c19.551,24,49.753,39.78,83.363,39.78c33.719,0,63.741-15.67,83.291-40.1C567.569,201.138,583.071,227.118,583.071,256.738z"></path><line display="none" stroke="#000000" stroke-width="40" stroke-miterlimit="10" x1="461.071" y1="421" x2="461.071" y2="570"></line><line display="none" stroke="#000000" stroke-width="40" stroke-miterlimit="10" x1="331.912" y1="645.271" x2="460.95" y2="570.771"></line><line display="none" stroke="#000000" stroke-width="40" stroke-miterlimit="10" x1="590.949" y1="645.271" x2="461.912" y2="570.771"></line><circle display="none" stroke="#000000" stroke-width="20" stroke-miterlimit="10" cx="783.028" cy="659.691" r="67.715"></circle><path display="none" stroke="#000000" stroke-width="20" stroke-miterlimit="10" d="M905.071,796.738v55.8  c0,14.46-11.821,26.462-26.271,26.462H687.261c-14.451,0-26.189-12.002-26.189-26.462v-55.8c0-29.44,15.514-55.07,38.564-70.07l0,0  c19.551,24,49.753,39.78,83.362,39.78c33.72,0,63.741-15.671,83.292-40.101C889.569,741.139,905.071,767.118,905.071,796.738z"></path><circle display="none" stroke="#000000" stroke-width="20" stroke-miterlimit="10" cx="139.029" cy="659.691" r="67.715"></circle><path display="none" stroke="#000000" stroke-width="20" stroke-miterlimit="10" d="M261.071,796.738v55.8  c0,14.46-11.821,26.462-26.271,26.462H43.261c-14.45,0-26.189-12.002-26.189-26.462v-55.8c0-29.44,15.515-55.07,38.564-70.07l0,0  c19.551,24,49.753,39.78,83.363,39.78c33.72,0,63.741-15.671,83.291-40.101C245.57,741.139,261.071,767.118,261.071,796.738z"></path><line display="none" fill="none" stroke="#000000" stroke-width="40" stroke-miterlimit="10" x1="460.071" y1="410" x2="460.071" y2="590"></line><polyline display="none" fill="none" stroke="#000000" stroke-width="40" stroke-miterlimit="10" points="98.071,590 98.071,504   821.071,504 821.071,590 "></polyline><circle display="none" stroke="#000000" stroke-width="20" stroke-miterlimit="10" cx="461.193" cy="115.33" r="67.715"></circle><path display="none" stroke="#000000" stroke-width="20" stroke-miterlimit="10" d="M583.071,252.377v55.8  c0,14.46-11.656,26.823-26.106,26.823H365.426c-14.45,0-26.354-12.363-26.354-26.823v-55.8c0-29.44,15.597-55.07,38.647-70.07l0,0  c19.55,24,49.793,39.78,83.404,39.78c33.719,0,63.678-15.67,83.228-40.1C567.631,196.777,583.071,222.757,583.071,252.377z"></path><circle display="none" stroke="#000000" stroke-width="10" stroke-miterlimit="10" cx="107.929" cy="714.433" r="52.171"></circle><path display="none" stroke="#000000" stroke-width="10" stroke-miterlimit="10" d="M202.071,820.021v42.99  c0,11.141-9.222,20.989-20.355,20.989H34.146c-11.133,0-20.074-9.849-20.074-20.989v-42.99c0-22.682,11.901-42.428,29.66-53.984l0,0  c15.063,18.49,38.306,30.648,64.201,30.648c25.979,0,49.153-12.074,64.216-30.896C190.083,777.185,202.071,797.2,202.071,820.021z"></path><circle display="none" stroke="#000000" stroke-width="10" stroke-miterlimit="10" cx="460.948" cy="714.433" r="52.171"></circle><path display="none" stroke="#000000" stroke-width="10" stroke-miterlimit="10" d="M555.071,820.021v42.99  c0,11.141-9.204,20.989-20.338,20.989h-147.57c-11.133,0-20.092-9.849-20.092-20.989v-42.99c0-22.682,11.91-42.428,29.67-53.984l0,0  c15.062,18.49,38.31,30.648,64.205,30.648c25.978,0,49.146-12.074,64.208-30.896C543.09,777.185,555.071,797.2,555.071,820.021z"></path><circle display="none" stroke="#000000" stroke-width="10" stroke-miterlimit="10" cx="814.296" cy="714.433" r="52.171"></circle><path display="none" stroke="#000000" stroke-width="10" stroke-miterlimit="10" d="M908.071,820.021v42.99  c0,11.141-8.855,20.989-19.989,20.989h-147.57c-11.133,0-20.44-9.849-20.44-20.989v-42.99c0-22.682,12.084-42.428,29.844-53.984l0,0  c15.063,18.49,38.397,30.648,64.292,30.648c25.979,0,49.017-12.074,64.079-30.896C896.222,777.185,908.071,797.2,908.071,820.021z"></path><path display="none" fill="none" stroke="#000000" stroke-width="40" stroke-miterlimit="10" d="M160.014,308.17  c35.07-66.72,91.72-120.319,160.68-151.52"></path><path display="none" fill="none" stroke="#000000" stroke-width="40" stroke-miterlimit="10" d="M320.694,774.74  c-68.97-31.21-125.64-84.83-160.71-151.57"></path><path display="none" fill="none" stroke="#000000" stroke-width="40" stroke-miterlimit="10" d="M599.694,156.55  c69.059,31.181,125.799,84.83,160.91,151.62"></path><path display="none" fill="none" stroke="#000000" stroke-width="40" stroke-miterlimit="10" d="M760.634,623.17  c-35.109,66.82-91.859,120.48-160.939,151.67"></path><circle display="none" stroke="#000000" stroke-width="10" stroke-miterlimit="10" cx="460.448" cy="734.112" r="52.171"></circle><path display="none" stroke="#000000" stroke-width="10" stroke-miterlimit="10" d="M554.071,839.7v42.99  c0,11.141-8.704,20.31-19.838,20.31h-147.57c-11.133,0-20.592-9.169-20.592-20.31V839.7c0-22.682,12.16-42.428,29.92-53.984l0,0  c15.062,18.49,38.435,30.648,64.33,30.648c25.978,0,48.958-12.074,64.021-30.896C542.277,796.864,554.071,816.88,554.071,839.7z"></path><circle display="none" stroke="#000000" stroke-width="10" stroke-miterlimit="10" cx="460.558" cy="80.352" r="52.171"></circle><path display="none" stroke="#000000" stroke-width="10" stroke-miterlimit="10" d="M554.071,185.939v42.99  c0,11.141-8.594,20.07-19.728,20.07h-147.57c-11.133,0-20.703-8.93-20.703-20.07v-42.99c0-22.682,12.216-42.428,29.975-53.984l0,0  c15.063,18.49,38.463,30.648,64.358,30.648c25.978,0,48.917-12.074,63.979-30.896C542.318,143.104,554.071,163.119,554.071,185.939z  "></path><circle display="none" stroke="#000000" stroke-width="10" stroke-miterlimit="10" cx="114.286" cy="407.232" r="52.171"></circle><path display="none" stroke="#000000" stroke-width="10" stroke-miterlimit="10" d="M208.071,512.819v42.99  c0,11.141-8.865,20.19-19.999,20.19H40.502c-11.133,0-20.431-9.05-20.431-20.19v-42.99c0-22.682,12.079-42.427,29.839-53.983l0,0  c15.062,18.489,38.395,30.647,64.29,30.647c25.979,0,49.02-12.074,64.082-30.895C196.217,469.984,208.071,489.999,208.071,512.819z"></path><circle display="none" stroke="#000000" stroke-width="10" stroke-miterlimit="10" cx="807.27" cy="407.232" r="52.171"></circle><path display="none" stroke="#000000" stroke-width="10" stroke-miterlimit="10" d="M901.071,512.819v42.99  c0,11.141-8.882,20.19-20.016,20.19h-147.57c-11.133,0-20.414-9.05-20.414-20.19v-42.99c0-22.682,12.071-42.427,29.831-53.983l0,0  c15.062,18.489,38.391,30.647,64.285,30.647c25.979,0,49.026-12.074,64.089-30.895C889.212,469.984,901.071,489.999,901.071,512.819  z"></path><circle display="none" stroke="#000000" stroke-width="40" stroke-miterlimit="10" cx="462.121" cy="342.127" r="110.16"></circle><path display="none" stroke="#000000" stroke-width="40" stroke-miterlimit="10" d="M660.071,565.078v90.776  c0,23.524-18.639,43.146-42.146,43.146H306.324c-23.508,0-43.253-19.621-43.253-43.146v-90.776  c0-47.894,25.563-89.589,63.062-113.992l0,0c31.805,39.043,81.1,64.715,135.777,64.715c54.856,0,103.479-25.493,135.284-65.236  C635.067,474.628,660.071,516.892,660.071,565.078z"></path><circle display="none" stroke="#000000" stroke-width="20" stroke-miterlimit="10" cx="771.418" cy="429.237" r="71.252"></circle><path display="none" stroke="#000000" stroke-width="20" stroke-miterlimit="10" d="M900.071,573.446v58.711  c0,15.22-12.671,27.843-27.881,27.843H715.071v-96.253c0-13.83-1.745-27.29-4.705-40.2c3.729,2.399,7.526,4.6,11.557,6.56  c14.97,7.311,31.725,11.46,49.414,11.46c35.48,0,67.212-16.489,87.782-42.189C883.619,514.937,900.071,542.276,900.071,573.446z"></path><circle display="none" stroke="#000000" stroke-width="20" stroke-miterlimit="10" cx="150.419" cy="429.237" r="71.252"></circle><path display="none" stroke="#000000" stroke-width="20" stroke-miterlimit="10" d="M212.846,522.597  c-3.239,13.18-4.774,26.96-4.774,41.15V660H49.651c-15.21,0-27.58-12.623-27.58-27.843v-58.711  c0-30.979,16.335-57.949,40.585-73.729c10.29,12.62,23.307,23.09,38.267,30.39c14.97,7.311,31.816,11.46,49.506,11.46  C173.53,541.566,195.016,534.577,212.846,522.597z"></path><path display="none" stroke="#000000" stroke-width="20" stroke-miterlimit="10" d="M755.071,309v-16.458  c34-14.571,57.859-48.275,57.859-87.521c0-52.592-42.454-95.224-95.045-95.224c-52.588,0-95.424,42.632-95.424,95.224  c0,39.365,23.609,73.154,57.609,87.655V309H755.071z"></path><line display="none" stroke="#000000" stroke-width="20" stroke-miterlimit="10" x1="717.071" y1="37" x2="717.071" y2="70"></line><line display="none" stroke="#000000" stroke-width="20" stroke-miterlimit="10" x1="682.071" y1="346" x2="754.071" y2="346"></line><line display="none" stroke="#000000" stroke-width="20" stroke-miterlimit="10" x1="550.071" y1="205" x2="583.071" y2="205"></line><line display="none" stroke="#000000" stroke-width="20" stroke-miterlimit="10" x1="853.071" y1="205" x2="886.071" y2="205"></line><line display="none" stroke="#000000" stroke-width="20" stroke-miterlimit="10" x1="599.524" y1="86.477" x2="622.84" y2="109.793"></line><line display="none" stroke="#000000" stroke-width="20" stroke-miterlimit="10" x1="813.298" y1="300.25" x2="836.614" y2="323.565"></line><line display="none" stroke="#000000" stroke-width="20" stroke-miterlimit="10" x1="836.614" y1="86.477" x2="813.298" y2="109.793"></line><line display="none" stroke="#000000" stroke-width="20" stroke-miterlimit="10" x1="622.84" y1="300.25" x2="599.524" y2="323.565"></line><line display="none" stroke="#000000" stroke-width="20" stroke-miterlimit="10" x1="687.071" y1="383" x2="748.071" y2="383"></line><path display="none" stroke="#000000" stroke-width="40" stroke-miterlimit="10" d="M498.377,360.113  c0,90.994-73.766,164.765-164.765,164.765c-90.998,0-164.765-73.771-164.765-164.765c0-90.997,73.768-164.766,164.765-164.766  C424.611,195.348,498.377,269.116,498.377,360.113z"></path><path display="none" stroke="#000000" stroke-width="40" stroke-miterlimit="10" d="M629.071,693.576v135.774  c0,35.184-27.269,64.649-62.427,64.649H100.589c-35.161,0-65.518-29.466-65.518-64.649V693.576  c0-71.633,38.646-133.995,94.733-170.495l0,0c47.568,58.397,121.505,96.794,203.286,96.794c82.049,0,154.572-38.13,202.14-97.573  C591.877,558.291,629.071,621.506,629.071,693.576z"></path><path display="none" fill="none" stroke="#000000" stroke-width="40" stroke-miterlimit="10" d="M648.888,62.52  c21.727-16.624,50.738-23.169,79.099-15.188c47.828,13.461,75.69,63.146,62.227,110.974c-11.004,39.102-46.221,64.857-84.84,65.599"></path><path display="none" fill="none" stroke="#000000" stroke-width="40" stroke-miterlimit="10" d="M655.479,297.045l12.354-43.897  c4.897-17.404,20.505-28.905,37.677-29.372"></path><path display="none" fill="none" stroke="#000000" stroke-width="40" stroke-miterlimit="10" d="M823.465,274.854  c14.899,1.522,28.921,9.795,37.233,23.615c14.022,23.309,6.492,53.569-16.814,67.591c-19.055,11.463-42.758,8.522-58.435-5.67"></path><path display="none" fill="none" stroke="#000000" stroke-width="40" stroke-miterlimit="10" d="M738.119,370.837l21.391-12.868  c8.484-5.102,19.021-3.833,26.04,2.421"></path><path display="none" stroke="#000000" stroke-width="40" stroke-miterlimit="10" d="M516.823,353.241  c0,90.994-73.766,164.764-164.765,164.764c-90.997,0-164.765-73.771-164.765-164.764c0-90.997,73.768-164.766,164.765-164.766  C443.057,188.475,516.823,262.244,516.823,353.241z"></path><path display="none" stroke="#000000" stroke-width="40" stroke-miterlimit="10" d="M648.071,686.703v135.774  c0,35.184-27.822,64.522-62.98,64.522H119.035c-35.161,0-64.964-29.339-64.964-64.522V686.703  c0-71.633,38.37-133.995,94.457-170.495l0,0c47.568,58.397,121.366,96.794,203.146,96.794c82.049,0,154.78-38.13,202.349-97.573  C610.67,551.418,648.071,614.633,648.071,686.703z"></path><line display="none" fill="none" stroke="#000000" stroke-width="40" stroke-miterlimit="10" x1="641.557" y1="358.101" x2="646.367" y2="336.456"></line><line display="none" fill="none" stroke="#000000" stroke-width="40" stroke-miterlimit="10" x1="693.264" y1="400.188" x2="711.301" y2="388.163"></line><path display="none" stroke="#000000" stroke-width="20" stroke-miterlimit="10" d="M847.191,45h-239.24  c-20.01,0-36.88,15.302-36.88,35.312v146.69c0,20.01,16.87,36.998,36.88,36.998h39.12v69.092L708.802,264h138.39  c20.01,0,35.88-16.988,35.88-36.998V80.312C883.071,60.302,867.201,45,847.191,45z M767.071,206h-130v-36h130V206z M817.071,137  h-180v-36h180V137z"></path><path display="none" stroke="#000000" stroke-width="40" stroke-miterlimit="10" d="M501.248,352.113  c0,90.994-73.767,164.765-164.766,164.765c-90.997,0-164.765-73.771-164.765-164.765c0-90.997,73.768-164.766,164.765-164.766  C427.481,187.348,501.248,261.116,501.248,352.113z"></path><path display="none" stroke="#000000" stroke-width="40" stroke-miterlimit="10" d="M632.071,685.576v135.774  c0,35.184-27.397,64.649-62.556,64.649H103.459c-35.161,0-65.388-29.466-65.388-64.649V685.576  c0-71.633,38.582-133.995,94.669-170.495l0,0c47.568,58.397,121.473,96.794,203.253,96.794c82.049,0,154.621-38.13,202.189-97.573  C594.829,550.291,632.071,613.506,632.071,685.576z"></path><path display="none" d="M884.071,95.01c0-21.544-17.465-39.01-39.01-39.01h-236.98c-21.545,0-39.01,17.465-39.01,39.01v163.98  c0,21.544,17.465,39.01,39.01,39.01h236.98c21.545,0,39.01-17.465,39.01-39.01V95.01z M623.371,258.692l-15.33-12.74l59.971-54.77  l15.329,12.75L623.371,258.692z M726.691,196.372l-0.101,0.11l-112.119-90.08l13.319-14.92l98.9,78.28l98.899-78.28l13.32,14.92  l-112.12,90.08L726.691,196.372z M830.012,259.692l-59.971-54.76l15.33-12.75l59.97,54.77L830.012,259.692z"></path><path display="none" stroke="#000000" stroke-width="40" stroke-miterlimit="10" d="M501.248,341.613  c0,90.994-73.767,164.765-164.766,164.765c-90.997,0-164.765-73.771-164.765-164.765c0-90.997,73.768-164.766,164.765-164.766  C427.481,176.848,501.248,250.616,501.248,341.613z"></path><path display="none" stroke="#000000" stroke-width="40" stroke-miterlimit="10" d="M632.071,675.076v135.774  c0,35.184-27.397,65.149-62.556,65.149H103.46c-35.161,0-65.389-29.966-65.389-65.149V675.076  c0-71.633,38.582-133.995,94.669-170.495l0,0c47.568,58.397,121.473,96.794,203.253,96.794c82.049,0,154.621-38.13,202.189-97.573  C594.829,539.791,632.071,603.006,632.071,675.076z"></path><g display="none"><path display="inline" d="M845.552,191.91l-4.683-26.215l24.813-32.767L829.169,87.52l-39.789,15.918l-19.659-10.301   l-11.236-37.914h-58.045l-11.235,37.914l-19.661,10.301L629.752,87.52l-36.51,45.408l24.81,32.767l-4.683,26.215l-36.514,18.257   l11.237,53.831l42.129,3.747l13.575,18.722l-4.681,38.852l50.088,23.877l26.681-28.089h27.151l26.685,28.089l50.084-23.877   l-4.681-38.852l13.579-18.722l42.129-3.747l11.233-53.831L845.552,191.91z M729.46,254.864c-29.083,0-52.656-23.573-52.656-52.657   c0-29.083,23.573-52.656,52.656-52.656c29.084,0,52.659,23.574,52.659,52.656C782.119,231.291,758.544,254.864,729.46,254.864z"></path></g><path display="none" stroke="#000000" stroke-width="40" stroke-miterlimit="10" d="M502.512,341.961  c0,90.994-73.766,164.765-164.765,164.765c-90.997,0-164.765-73.771-164.765-164.765c0-90.996,73.768-164.766,164.765-164.766  C428.746,177.196,502.512,250.965,502.512,341.961z"></path><path display="none" stroke="#000000" stroke-width="40" stroke-miterlimit="10" d="M633.071,675.425v135.774  c0,35.184-27.134,64.801-62.292,64.801H104.724c-35.161,0-65.653-29.617-65.653-64.801V675.425  c0-71.633,38.714-133.995,94.801-170.495l0,0c47.568,58.397,121.539,96.794,203.319,96.794c82.049,0,154.521-38.13,202.09-97.573  C595.928,540.14,633.071,603.354,633.071,675.425z"></path><circle display="none" fill="none" stroke="#000000" stroke-width="40" stroke-miterlimit="10" cx="700.977" cy="161.804" r="116.863"></circle><line display="none" fill="none" stroke="#000000" stroke-width="40" stroke-miterlimit="10" x1="783.611" y1="244.438" x2="860.93" y2="321.757"></line><path display="none" stroke="#000000" stroke-width="40" stroke-miterlimit="10" d="M523.647,352.244  c0,90.994-73.766,164.765-164.765,164.765c-90.997,0-164.765-73.771-164.765-164.765c0-90.996,73.768-164.766,164.765-164.766  C449.881,187.478,523.647,261.248,523.647,352.244z"></path><path display="none" stroke="#000000" stroke-width="40" stroke-miterlimit="10" d="M654.071,685.707v135.774  c0,35.184-26.998,64.519-62.156,64.519H125.86c-35.161,0-65.789-29.335-65.789-64.519V685.707  c0-71.633,38.782-133.995,94.869-170.495l0,0c47.568,58.397,121.572,96.794,203.353,96.794c82.049,0,154.471-38.13,202.039-97.573  C616.979,550.422,654.071,613.637,654.071,685.707z"></path><path display="none" fill="none" stroke="#000000" stroke-width="40" stroke-miterlimit="10" d="M774.655,244.456  c-42.196,0-76.403-34.208-76.403-76.403s34.207-76.403,76.403-76.403c42.195,0,76.402,34.207,76.402,76.403"></path><path display="none" fill="none" stroke="#000000" stroke-width="40" stroke-miterlimit="10" d="M774.655,244.623  c42.195,0,76.402,34.206,76.402,76.402c0,42.197-34.207,76.403-76.402,76.403c-42.197,0-76.403-34.206-76.403-76.403"></path><line display="none" fill="none" stroke="#000000" stroke-width="40" stroke-miterlimit="10" x1="774.071" y1="37" x2="774.071" y2="453"></line><path display="none" stroke="#000000" stroke-width="40" stroke-miterlimit="10" d="M533.521,360.113  c0,90.994-73.767,164.765-164.766,164.765c-90.997,0-164.765-73.771-164.765-164.765c0-90.996,73.768-164.766,164.765-164.766  C459.754,195.347,533.521,269.117,533.521,360.113z"></path><path display="none" stroke="#000000" stroke-width="40" stroke-miterlimit="10" d="M664.071,693.576v135.774  c0,35.184-27.125,64.649-62.283,64.649H135.732c-35.161,0-65.661-29.466-65.661-64.649V693.576  c0-71.633,38.718-133.995,94.805-170.495l0,0c47.568,58.397,121.541,96.794,203.321,96.794c82.049,0,154.52-38.13,202.088-97.573  C626.932,558.291,664.071,621.506,664.071,693.576z"></path><circle display="none" fill="none" stroke="#000000" stroke-width="40" stroke-miterlimit="10" cx="461.031" cy="466.007" r="330.573"></circle><line display="none" fill="none" stroke="#000000" stroke-width="40" stroke-miterlimit="10" x1="33.071" y1="467" x2="184.071" y2="467"></line><line display="none" fill="none" stroke="#000000" stroke-width="40" stroke-miterlimit="10" x1="739.071" y1="467" x2="889.071" y2="467"></line><line display="none" fill="none" stroke="#000000" stroke-width="40" stroke-miterlimit="10" x1="461.071" y1="894" x2="461.071" y2="744"></line><line display="none" fill="none" stroke="#000000" stroke-width="40" stroke-miterlimit="10" x1="461.071" y1="189" x2="461.071" y2="38"></line><circle display="none" stroke="#000000" stroke-width="20" stroke-miterlimit="10" cx="462.029" cy="390.125" r="67.715"></circle><path display="none" stroke="#000000" stroke-width="20" stroke-miterlimit="10" d="M584.071,527.173v55.8  c0,14.46-11.821,27.027-26.271,27.027H366.261c-14.451,0-26.19-12.567-26.19-27.027v-55.8c0-29.44,15.514-55.071,38.564-70.071l0,0  c19.551,24.001,49.753,39.781,83.362,39.781c33.72,0,63.741-15.671,83.291-40.102C568.569,471.572,584.071,497.553,584.071,527.173z  "></path><line display="none" fill="none" stroke="#000000" stroke-width="40" stroke-miterlimit="10" x1="9.071" y1="452" x2="913.071" y2="452"></line><rect x="55.071" y="452" display="none" stroke="#000000" stroke-width="20" stroke-miterlimit="10" width="812" height="329"></rect><circle display="none" stroke="#000000" stroke-width="20" stroke-miterlimit="10" cx="646.894" cy="225.036" r="74.855"></circle><path display="none" stroke="#000000" stroke-width="20" stroke-miterlimit="10" d="M781.071,376.535v61.683  c0,15.984-12.333,28.782-28.309,28.782H541.026c-15.974,0-28.955-12.797-28.955-28.782v-61.683  c0-32.544,17.152-60.876,42.633-77.458l0,0c21.613,26.53,55.001,43.975,92.155,43.975c37.274,0,70.095-17.324,91.708-44.328  C764.302,315.073,781.071,343.792,781.071,376.535z"></path><circle display="none" stroke="#000000" stroke-width="20" stroke-miterlimit="10" cx="275.894" cy="225.036" r="74.855"></circle><path display="none" stroke="#000000" stroke-width="20" stroke-miterlimit="10" d="M410.071,376.535v61.684  c0,15.984-12.333,28.782-28.308,28.782H170.027c-15.974,0-28.956-12.797-28.956-28.782v-61.684  c0-32.544,17.152-60.876,42.633-77.457l0,0c21.613,26.529,55.001,43.975,92.156,43.975c37.274,0,70.095-17.324,91.707-44.328  C393.301,315.074,410.071,343.792,410.071,376.535z"></path><polygon display="none" stroke="#000000" stroke-width="20" stroke-miterlimit="10" points="818.188,809 102.823,809   165.963,693.278 235.102,567.24 257.769,526 663.24,526 685.907,566.986 755.048,693.471 "></polygon><polyline display="none" fill="none" stroke="#000000" stroke-width="40" stroke-miterlimit="10" points="201.071,350 201.071,123   720.071,123 720.071,350 "></polyline><circle display="none" stroke="#000000" stroke-width="20" stroke-miterlimit="10" cx="461.738" cy="325.193" r="65.403"></circle><path display="none" stroke="#000000" stroke-width="20" stroke-miterlimit="10" d="M578.071,457.562v53.896  c0,13.966-9.874,25.542-23.833,25.542H369.24c-13.957,0-26.168-11.576-26.168-25.542v-53.896c0-28.435,15.422-53.188,37.685-67.676  l0,0c18.884,23.179,48.273,38.421,80.735,38.421c32.568,0,60.9-15.137,79.784-38.73  C563.761,403.862,578.071,428.955,578.071,457.562z"></path><circle display="none" stroke="#000000" stroke-width="20" stroke-miterlimit="10" cx="785.543" cy="467.193" r="65.403"></circle><path display="none" stroke="#000000" stroke-width="20" stroke-miterlimit="10" d="M902.071,599.563v53.896  c0,13.966-10.068,25.542-24.027,25.542h-185c-13.957,0-25.973-11.576-25.973-25.542v-53.896c0-28.435,15.324-53.188,37.586-67.676  l0,0c18.885,23.179,48.226,38.422,80.688,38.422c32.568,0,60.974-15.137,79.856-38.73  C887.688,545.863,902.071,570.955,902.071,599.563z"></path><circle display="none" stroke="#000000" stroke-width="20" stroke-miterlimit="10" cx="137.543" cy="467.193" r="65.403"></circle><path display="none" stroke="#000000" stroke-width="20" stroke-miterlimit="10" d="M254.071,599.563v53.896  c0,13.966-10.068,25.542-24.027,25.542H45.045c-13.957,0-25.974-11.576-25.974-25.542v-53.896c0-28.435,15.324-53.188,37.587-67.676  l0,0c18.884,23.179,48.225,38.422,80.688,38.422c32.568,0,60.973-15.137,79.857-38.73  C239.688,545.863,254.071,570.955,254.071,599.563z"></path><path display="none" d="M376.121,897.63C262.361,875.49,164.271,809,100.151,718h160.61C288.21,799,328.531,862.77,376.121,897.63z"></path><path display="none" d="M222.17,485c1.51,69,11.01,135,26.78,194H75.741c-32.14-58-51.6-124-54.61-194H222.17z"></path><path display="none" d="M441.071,485v194H293.69c-15.55-58-25.03-124-26.52-194H441.071z"></path><path display="none" d="M305.661,718h135.411v165.627C386.071,871.967,337.411,810,305.661,718z"></path><path display="none" d="M76.041,252h172.81c-15.81,58-25.29,124-26.71,195H21.111C24.071,376,43.651,310,76.041,252z"></path><path display="none" d="M441.071,252v195H267.141c1.4-71,10.86-138,26.45-195H441.071z"></path><path display="none" d="M260.641,213h-160.11c63.82-91,161.11-156.35,273.94-178.76C327.531,69.39,287.781,132,260.641,213z"></path><path display="none" d="M441.071,45.277V213H305.531C337.281,120,386.071,56.957,441.071,45.277z"></path><path display="none" d="M480.071,718H615.3c-31.489,91-80.229,152.937-135.229,165.337V718z"></path><path display="none" d="M653.79,485c-1.49,70-10.97,136-26.52,194H480.071V485H653.79z"></path><path display="none" d="M627.37,252c15.59,57,25.05,124,26.45,195H480.071V252H627.37z"></path><path display="none" d="M615.43,213H480.071V45.567C536.071,57.987,583.93,121,615.43,213z"></path><path display="none" d="M820.87,213H660.32c-27.17-81-66.98-143.74-113.98-178.88C659.42,56.42,756.94,122,820.87,213z"></path><path display="none" d="M900.29,447H698.82c-1.42-71-10.9-137-26.71-195h173.25C877.75,310,897.33,376,900.29,447z"></path><path display="none" d="M660.2,718h161.05c-64.24,91-162.56,157.72-276.58,179.75C592.33,862.92,632.72,799,660.2,718z"></path><path display="none" d="M900.271,485c-3.011,70-22.471,136-54.61,194H672.01c15.771-59,25.271-125,26.78-194H900.271z"></path><path display="none" d="M441.071,485v194H293.69c-15.55-58-25.03-124-26.52-194H441.071z"></path><path display="none" d="M305.661,718h135.411v165.627C386.071,871.967,337.411,810,305.661,718z"></path><path display="none" d="M441.071,252v195H267.141c1.4-71,10.86-138,26.45-195H441.071z"></path><path display="none" d="M441.071,45.277V213H305.531C337.281,120,386.071,56.957,441.071,45.277z"></path><path display="none" d="M480.071,718H615.3c-31.489,91-80.229,152.937-135.229,165.337V718z"></path><path display="none" d="M653.79,485c-1.49,70-10.97,136-26.52,194H480.071V485H653.79z"></path><path display="none" d="M627.37,252c15.59,57,25.05,124,26.45,195H480.071V252H627.37z"></path><path display="none" d="M615.43,213H480.071V45.567C536.071,57.987,583.93,121,615.43,213z"></path><path display="none" d="M441.071,45.277V213H305.531C337.281,120,386.071,56.957,441.071,45.277z"></path><path display="none" d="M441.071,252v195H267.141c1.4-71,10.86-138,26.45-195H441.071z"></path><path display="none" d="M441.071,485v194H293.69c-15.55-58-25.03-124-26.52-194H441.071z"></path><path display="none" d="M305.661,718h135.411v165.627C386.071,871.967,337.411,810,305.661,718z"></path><path display="none" d="M480.071,718H615.3c-31.489,91-80.229,152.937-135.229,165.337V718z"></path><path display="none" d="M653.79,485c-1.49,70-10.97,136-26.52,194H480.071V485H653.79z"></path><path display="none" d="M615.43,213H480.071V45.567C536.071,57.987,583.93,121,615.43,213z"></path><path display="none" d="M653.82,447H480.071V252H627.37C642.96,309,652.42,376,653.82,447z"></path></svg>