<svg xmlns="http://www.w3.org/2000/svg" xmlns:xlink="http://www.w3.org/1999/xlink" version="1.1" x="0px" y="0px" viewBox="17 176.375 48 48" enable-background="new 17 176.375 48 48" xml:space="preserve"><path fill="#868686" d="M41,176.375c-13.255,0-24,10.745-24,24s10.745,24,24,24s24-10.745,24-24S54.255,176.375,41,176.375z   M50.064,204.125H44.75v5.314c0,2.201-1.688,4-3.75,4c-2.062,0-3.75-1.799-3.75-4v-5.314h-5.315c-2.2,0-4-1.688-4-3.75  c0-2.062,1.8-3.75,4-3.75h5.315v-5.314c0-2.201,1.688-4,3.75-4c2.062,0,3.75,1.799,3.75,4v5.314h5.314c2.201,0,4,1.688,4,3.75  C54.064,202.438,52.266,204.125,50.064,204.125z"></path></svg>