<svg xmlns="http://www.w3.org/2000/svg" xmlns:xlink="http://www.w3.org/1999/xlink" version="1.1" x="0px" y="0px" viewBox="0 0 100 100" enable-background="new 0 0 100 100" xml:space="preserve"><g><rect x="-192" width="185" height="99"></rect><rect y="-36" width="100" height="30"></rect><text transform="matrix(1 0 0 1 66 -19.5)" fill="#868686" font-family="'Helvetica'" font-size="2.4">http://thenounproject.com</text><text transform="matrix(1 0 0 1 7.166 -24.5)"><tspan x="0" y="0" fill="#868686" font-family="'Helvetica-Bold'" font-size="6.1578">The Noun Project</tspan><tspan x="1.12" y="4.8" fill="#868686" font-family="'Helvetica-Bold'" font-size="4">Icon Template</tspan></text><text transform="matrix(1 0 0 1 -178.5 10.5)" fill="#868686" font-family="'Helvetica-Bold'" font-size="6.1578">Reminders</text><line fill="#868686" stroke="#FFFFFF" stroke-miterlimit="10" x1="8" y1="-14.5" x2="18" y2="-14.5"></line><line fill="#868686" stroke="#FFFFFF" stroke-miterlimit="10" x1="-179" y1="16.5" x2="-162" y2="16.5"></line><g><g><g><rect x="-170.802" y="31.318" fill="#868686" width="8.721" height="8.642"></rect><path fill="#868686" d="M-164.455,42.312h4.747v-4.703h-4.747V42.312z M-159.266,42.749h-5.63V37.17h5.63V42.749      L-159.266,42.749z M-166.221,44.062h8.279v-8.203h-8.279V44.062L-166.221,44.062z M-157.5,44.5h-9.163v-9.079h9.163V44.5      L-157.5,44.5z"></path><polygon fill="#868686" points="-166.149,44.133 -166.292,43.991 -158.013,35.787 -157.871,35.929     "></polygon></g></g></g><rect x="-179" y="58" fill="none" width="35" height="32.5"></rect><text transform="matrix(1 0 0 1 -179 60.1572)"><tspan x="0" y="0" fill="#868686" font-family="'Helvetica-Bold'" font-size="3">Strokes</tspan><tspan x="0" y="5" fill="#868686" font-family="'Helvetica'" font-size="2.4">Try to keep strokes at 4px</tspan><tspan x="0" y="10" fill="#868686" font-family="'Helvetica'" font-size="2.4">Minimum stroke weight is 2px</tspan><tspan x="0" y="14.5" fill="#868686" font-family="'Helvetica'" font-size="2.4">For thicker strokes use even </tspan><tspan x="0" y="17.5" fill="#868686" font-family="'Helvetica'" font-size="2.4">numbers: 6px, 8px etc.</tspan><tspan x="0" y="22" fill="#868686" font-family="'Helvetica-Bold'" font-size="2.4">Remember to expand strokes </tspan><tspan x="0" y="25" fill="#868686" font-family="'Helvetica-Bold'" font-size="2.4">before saving as an SVG </tspan></text><rect x="-136.5" y="58" fill="none" width="35" height="32.5"></rect><text transform="matrix(1 0 0 1 -136.5 60.1572)"><tspan x="0" y="0" fill="#868686" font-family="'Helvetica-Bold'" font-size="3">Size</tspan><tspan x="0" y="5" fill="#868686" font-family="'Helvetica'" font-size="2.4">Cannot be wider or taller than </tspan><tspan x="0" y="8.5" fill="#868686" font-family="'Helvetica'" font-size="2.4">100px (artboard size)</tspan><tspan x="0" y="13.5" fill="#868686" font-family="'Helvetica'" font-size="2.4">Scale your icon to fill as much of </tspan><tspan x="0" y="16.5" fill="#868686" font-family="'Helvetica'" font-size="2.4">the artboard as possible</tspan></text><rect x="-94" y="58" fill="none" width="35" height="32.5"></rect><text transform="matrix(1 0 0 1 -94 60.1572)"><tspan x="0" y="0" fill="#868686" font-family="'Helvetica-Bold'" font-size="3">Ungroup</tspan><tspan x="0" y="5" fill="#868686" font-family="'Helvetica'" font-size="2.4">If your design has more than one </tspan><tspan x="0" y="8" fill="#868686" font-family="'Helvetica'" font-size="2.4">shape, make sure to ungroup</tspan></text><rect x="-50" y="58" fill="none" width="35" height="32.5"></rect><text transform="matrix(1 0 0 1 -50 60.1572)"><tspan x="0" y="0" fill="#868686" font-family="'Helvetica-Bold'" font-size="3">Save as</tspan><tspan x="0" y="5" fill="#868686" font-family="'Helvetica'" font-size="2.4">Save as .SVG and make sure </tspan><tspan x="0" y="8" fill="#868686" font-family="'Helvetica'" font-size="2.4">“Use Artboards” is checked</tspan></text><text transform="matrix(1.0074 0 0 1 -125.542 30.5933)" fill="#868686" font-family="'Helvetica'" font-size="2.5731">100px</text><text transform="matrix(1.0074 0 0 1 -41 39)" fill="#868686" font-family="'Helvetica-Bold'" font-size="5.1462">.SVG</text><rect x="-126.514" y="34.815" fill="#868686" width="10.261" height="10.185"></rect><rect x="-126.477" y="31.766" fill="#868686" width="0.522" height="2.337"></rect><rect x="-116.812" y="31.766" fill="#868686" width="0.523" height="2.337"></rect><rect x="-127" y="32.337" fill="#868686" width="11.233" height="0.572"></rect><g><rect x="-83.805" y="33.844" fill="#868686" width="10.305" height="10.156"></rect><rect x="-76.809" y="28.707" fill="#868686" width="3.308" height="3.261"></rect></g><rect x="-178.5" y="22.5" fill="#868686" stroke="#FFFFFF" stroke-miterlimit="10" width="30" height="30"></rect><rect x="-136.5" y="22.5" fill="#868686" stroke="#FFFFFF" stroke-miterlimit="10" width="30" height="30"></rect><rect x="-93.5" y="22.5" fill="#868686" stroke="#FFFFFF" stroke-miterlimit="10" width="30" height="30"></rect><rect x="-49.5" y="22.5" fill="#868686" stroke="#FFFFFF" stroke-miterlimit="10" width="30" height="30"></rect></g><g><path fill-rule="evenodd" fill="#868686" clip-rule="evenodd" d="M65.332,75.791v-5.974l29.308-8.416v5.159l1.493,0.408L100,65.882V46.741   l-0.136-1.153l-0.204-1.086l-0.407-1.017l-0.475-1.018l-0.611-0.952L97.354,40.7L96.54,40.09l-0.95-0.611l-1.018-0.475   l-1.086-0.272l-1.152-0.134h-1.086l-1.087,0.134l-0.609,0.136L73.54,43.484l-3.053-1.018l-3.053-0.95L64.383,40.7l-3.121-0.746   l-3.12-0.679l-3.121-0.609l-3.121-0.542l-3.256-0.475l-3.188-0.34l-3.121-0.272h-0.543v-3.732l-0.067-1.088l-0.204-1.083   l-0.407-1.086l-0.475-0.949l-0.611-0.952l-0.813-0.815l-0.882-0.745l-0.949-0.543l-0.747-0.341h0.068l-1.968-0.677L32.7,24.411   l-1.968-0.543l-2.035-0.338l-2.035-0.272l-2.171-0.134l-2.036-0.068l-2.104,0.134l-2.102,0.205l-2.036,0.339l-2.036,0.475   l-2.035,0.544l-1.899,0.679l-1.967,0.745l-1.9,0.952l-0.204,0.135l-1.018,0.611l-1.085,0.813L3.12,29.503l-0.813,1.018   l-0.747,1.085L0.95,32.759L0.475,34.05l-0.271,1.152l-0.135,1.29L0,37.444v21.72l3.867,1.083l1.357-0.405v-5.226l52.442,15.201   v5.974l3.866,1.154L65.332,75.791 M42.808,38.325l-1.899-0.202l-1.967-0.136h-1.968l-1.9,0.136l-1.899,0.202l-1.967,0.407   l-1.832,0.408l-0.339,0.135l-1.696,0.542l-1.628,0.68l-1.493,0.813l-1.493,0.883l-1.9,1.358l-0.407,0.475l-0.407,0.543   l-0.136,0.609L19.81,45.86l0.068,0.611l0.136,0.611l0.407,0.543l0.407,0.475h0.136l0.95,0.677l1.086,0.406l0.61,0.272   l37.923,10.996v-4.886l0.068-1.291l0.203-1.289l0.34-1.223l0.543-1.152l0.61-1.156l0.746-1.086l0.882-0.95l0.95-0.813l1.085-0.747   l1.086-0.613l1.221-0.543l0.543-0.203l-3.392-1.017l-3.528-0.95l-3.459-0.95l-3.461-0.749l-3.527-0.746l-3.596-0.679l-3.46-0.611   l-3.596-0.543L42.808,38.325z M37.313,34.253l-1.424-0.813l-1.493-0.749l-1.492-0.609l-1.696-0.475l-1.628-0.475l-1.628-0.136   l-1.696-0.205l-1.628,0.068l-1.696,0.136l-1.629,0.271l-1.696,0.407l-1.561,0.542l-1.56,0.68l-1.493,0.815l-1.357,0.815   l-2.713,2.17l-0.95,0.953L9.43,38.394l-0.475,0.882l-0.339,0.883L8.48,41.04v1.02l0.135,0.881l0.339,0.95l0.407,0.813l0.611,0.817   l0.678,0.611l0.814,0.543l0.882,0.338l0.95,0.271h0.678h-0.068h1.085l1.085-0.134l1.018-0.341l0.543-0.203l-0.068-0.679v-0.681   l0.205-0.677l0.813-1.222l0.203-0.068l1.425-1.086l1.561-1.085l1.628-0.883l1.696-0.813l1.764-0.679l1.832-0.609l1.764-0.475   l1.899-0.272l1.833-0.204l1.831-0.066H36.5l0.407-0.07l0.407-0.205l0.339-0.202l0.271-0.409l0.135-0.407v-0.407L37.924,35   l-0.204-0.407l-0.339-0.34H37.313z"></path></g></svg>