<svg xmlns="http://www.w3.org/2000/svg" xmlns:xlink="http://www.w3.org/1999/xlink" version="1.1" x="0px" y="0px" viewBox="0 0 32 32" enable-background="new 0 0 32 32" xml:space="preserve"><path fill="#868686" d="M16,0.958C7.706,0.958,0.958,7.706,0.958,16S7.706,31.042,16,31.042S31.042,24.294,31.042,16S24.294,0.958,16,0.958zM16,28.042C9.36,28.042,3.958,22.64,3.958,16C3.958,9.36,9.36,3.958,16,3.958c6.64,0,12.042,5.402,12.042,12.042C28.042,22.64,22.64,28.042,16,28.042zM20.893,7.572l-6.144,4.021c-1.38,0.904-2.879,2.942-3.33,4.529l-2.004,7.063c-0.45,1.587,0.311,2.146,1.691,1.243l6.143-4.021c1.38-0.903,2.879-2.941,3.329-4.529l2.006-7.062C23.035,7.228,22.273,6.669,20.893,7.572zM18.148,17.58c-0.873,1.187-2.542,1.44-3.728,0.568c-1.187-0.872-1.442-2.541-0.57-3.728c0.873-1.188,2.542-1.442,3.729-0.57C18.766,14.724,19.021,16.394,18.148,17.58z"></path></svg>