<svg xmlns="http://www.w3.org/2000/svg" xmlns:xlink="http://www.w3.org/1999/xlink" version="1.1" x="0px" y="0px" viewBox="0 0 100 100" enable-background="new 0 0 100 100" xml:space="preserve"><path fill="#127BA3" d="M50,2.5C23.769,2.5,2.5,23.766,2.5,50c0,26.234,21.269,47.5,47.5,47.5S97.5,76.234,97.5,50  C97.5,23.766,76.231,2.5,50,2.5z M60.428,45.382c-0.455,2.182-7.061,14.236-8.985,18.311c-1.097,2.333-3.254,5.568-2.781,8.287  c0.376,2.161,2.61,3.333,4.558,3.804c0.644,0.155,2.509,0.364,2.509,1.311c0,0.385-0.306,0.69-0.691,0.7  c0,0.009-14.676,0.009-14.676,0.009c-2.094,0-3.915-1.486-4.179-3.564c-0.302-2.34,1.28-4.443,2.236-6.445  c2.05-4.288,4.381-8.447,6.417-12.747c0.735-1.552,1.415-3.126,2.162-4.669c0.747-1.535,1.67-3.277,1.055-5.017  c-0.659-1.855-2.851-2.786-4.62-3.217c-0.645-0.153-2.509-0.364-2.509-1.306c0-0.388,0.308-0.694,0.693-0.703  c0-0.009,14.674-0.009,14.674-0.009c2.171,0,4.129,1.698,4.244,3.864C60.562,44.452,60.521,44.916,60.428,45.382z M57.069,35.769  c-3.748,0-6.786-3.041-6.786-6.787c0-3.746,3.038-6.786,6.786-6.786c3.743,0,6.786,3.041,6.786,6.786  C63.855,32.728,60.812,35.769,57.069,35.769z"></path></svg>