<svg xmlns="http://www.w3.org/2000/svg" xmlns:xlink="http://www.w3.org/1999/xlink" version="1.1" x="0px" y="0px" viewBox="0 0 64 64" enable-background="new 0 0 64 64" xml:space="preserve"><g><path fill="#868686" d="M15.655,15.683c0.633-3.428,3.164-6.12,6.686-6.941c0.576-0.132,1.19-0.198,1.842-0.198l2.049-0.019v3.759   l-0.482-0.019c-0.784-0.019-1.539-0.028-2.115,0.047c-2.097,0.236-3.494,1.398-4.165,3.438c-0.019,0.066-0.038,0.123-0.057,0.189   C18.186,15.608,16.911,15.523,15.655,15.683z"></path><path fill="#868686" d="M63.452,17.563c0.009,9.765,0.009,19.521,0,29.286v1.558c0.009,1.917,0.019,3.91-0.113,5.855   c-0.283,4.127-4.014,7.65-8.141,7.687c-3.353,0.038-6.696,0.038-10.049,0.038H34.355c-1.001,0-1.993-0.009-2.994-0.009   c-2.295-0.009-4.59-0.019-6.875,0.019h-0.161c-4.656,0-7.65-3.258-8.462-6.29c-0.009-0.028-0.009-0.047-0.019-0.076l1.029,0.595   l2.04-1.181c0.123-0.066,0.217-0.123,0.274-0.17l0.019-0.009c0.076-0.047,0.151-0.104,0.227-0.151   c0.661,2.182,2.588,3.589,5.109,3.589l16.688-0.009c4.373,0,8.755,0,13.127,0.028c1.539,0,2.918-0.576,3.929-1.615   c0.973-0.992,1.483-2.314,1.445-3.712c-0.057-2.125-0.038-4.278-0.028-6.365c0.009-0.935,0.019-1.86,0.019-2.786V17.534   c-0.009-2.418-1.284-4.297-3.428-5.034c-1.039-0.349-2.059-0.312-3.06-0.293l-0.482,0.009l-0.038-0.472v-3.22l1.681,0.009   C59.627,8.534,63.442,12.331,63.452,17.563z"></path><path fill="#868686" d="M50.881,11.833c-0.009,0.91-0.394,1.304-1.304,1.304H29.524c-1.116,0-1.454-0.347-1.454-1.491   c-0.009-0.891-0.009-2.176,0-3.067c0.009-0.788,0.413-1.172,1.201-1.21c0.844-0.028,1.707,0.019,2.532-0.141   c1.435-0.291,2.561-1.116,3.302-2.41c0.253-0.441,0.488-0.891,0.75-1.332c0.572-0.966,1.426-1.454,2.542-1.473   c0.647-0.019,1.294,0.009,1.942-0.009c1.313-0.028,2.232,0.572,2.889,1.688c0.497,0.835,1.004,1.707,1.679,2.382   c1.05,1.041,2.41,1.36,3.883,1.313c1.97-0.056,2.092,0.103,2.092,2.045C50.881,10.108,50.89,11.167,50.881,11.833z"></path><g><g><g><path fill="#868686" d="M40.267,23.248v2.843h-4.25c0-0.066,0-0.132,0.009-0.198c0.066-0.944-0.113-1.842-0.501-2.644H40.267z"></path></g><g><path fill="#868686" d="M55.011,26.094c0-0.963,0-1.882,0-2.845c-2.918,0-7.168,0-10.111,0c0,0.926,0,1.861,0,2.845      C47.805,26.094,52.054,26.094,55.011,26.094z"></path></g><g><path fill="#868686" d="M55.011,31.549c0,0.956,0,1.874,0,2.843c-4.413,0-3.139,0-7.576,0c0-0.925,0-1.86,0-2.843      C51.829,31.549,50.556,31.549,55.011,31.549z"></path></g><g><path fill="#868686" d="M42.807,31.549v2.843h-8.33c0.274-0.926,0.51-1.87,0.718-2.843H42.807z"></path></g></g></g><g><g><g><path fill="#868686" d="M40.267,39.983v2.843h-9.435c0.548-0.926,1.048-1.87,1.511-2.843H40.267z"></path></g><g><path fill="#868686" d="M55.011,42.831c0-0.963,0-1.882,0-2.845c-2.918,0-7.168,0-10.111,0c0,0.926,0,1.861,0,2.845      C47.805,42.831,52.054,42.831,55.011,42.831z"></path></g><g><path fill="#868686" d="M55.011,48.286c0,0.956,0,1.874,0,2.843c-4.413,0-8.805,0-13.242,0c0-0.925,0-1.86,0-2.843      C46.163,48.286,50.556,48.286,55.011,48.286z"></path></g><g><path fill="#868686" d="M27.027,51.13c0-0.963,0-1.882,0-2.845c2.919,0,7.168,0,10.111,0c0,0.926,0,1.861,0,2.845      C34.233,51.13,29.984,51.13,27.027,51.13z"></path></g></g></g><polygon fill="#868686" points="23.58,33.332 18.665,33.332 18.665,28.441 15.011,28.441 15.011,33.356 10.169,33.356    10.169,36.981 15.07,36.981 15.07,41.837 18.686,41.837 18.686,36.919 23.58,36.919  "></polygon><path fill="#868686" d="M16.874,52.956l-0.62-0.357c-0.055-0.032-0.099-0.061-0.125-0.079l-0.01-0.007   C7.141,46.658,1.779,37.679,0.618,26.549c-0.021-0.201-0.047-0.524-0.071-0.865c-0.078-1.093,0.602-2.082,1.654-2.401   c1.253-0.378,7.114-2.522,12.181-4.403c0.8-0.297,1.638-0.448,2.491-0.448c0.853,0,1.691,0.151,2.491,0.448   c5.068,1.881,10.929,4.025,12.179,4.402c1.055,0.32,1.735,1.309,1.656,2.405c-0.023,0.338-0.05,0.661-0.07,0.861   c-1.161,11.13-6.523,20.109-15.506,25.967l-0.006,0.004c-0.026,0.018-0.07,0.047-0.125,0.079L16.874,52.956z M3.035,25.627   c0.019,0.268,0.04,0.515,0.055,0.664c1.054,10.105,5.816,18.297,13.784,23.738c7.971-5.443,12.73-13.634,13.785-23.738   c0.016-0.149,0.036-0.397,0.055-0.664c-1.872-0.587-9.789-3.517-12.213-4.417c-0.522-0.194-1.07-0.292-1.626-0.292   s-1.104,0.098-1.626,0.292C12.825,22.11,4.912,25.039,3.035,25.627z"></path></g></svg>