<svg fill="#FFFFFF" xmlns="http://www.w3.org/2000/svg" xmlns:xlink="http://www.w3.org/1999/xlink" version="1.1" x="0px" y="0px" viewBox="0 0 60 60" style="enable-background:new 0 0 60 60;" xml:space="preserve"><g><g><path d="M56,19.3H4c-1.1,0-2,0.9-2,2v27c0,1.1,0.9,2,2,2h52c1.1,0,2-0.9,2-2v-27C58,20.1,57.1,19.3,56,19.3z M56,24.8h-0.5    c-1.7,0-3-1.3-3-3v-0.5H56L56,24.8z M4,21.3h4v0.5c0,1.7-1.3,3-3,3H4V21.3z M4,44.8h1c1.7,0,3,1.3,3,3v0.5H4V44.8z M52,48.3v-0.5    c0-1.7,1.3-3,3-3h1v-2h-1c-2.8,0-5,2.2-5,5v0.5H10v-0.5c0-2.8-2.2-5-5-5H4v-16h1c2.8,0,5-2.2,5-5v-0.5h40.5v0.5c0,2.8,2.2,5,5,5    H56l0,21.5H52z"></path><rect x="7" y="14.8" width="46" height="2"></rect><rect x="13" y="9.8" width="34" height="2"></rect><path d="M31,36.5v2.8c1-0.3,1.1-1.1,1.1-1.5C32.1,37.3,31.8,36.9,31,36.5z"></path><path d="M28.3,32.8c0,0.5,0.3,0.8,1,1.1v-2.4C28.7,31.7,28.3,32.2,28.3,32.8z"></path><path d="M22.2,27.2c-4.3,4.3-4.3,11.3,0,15.6c4.3,4.3,11.3,4.3,15.6,0c4.3-4.3,4.3-11.3,0-15.6S26.5,22.9,22.2,27.2z M31,41.2v1.4    h-1.6v-1.4c-1.2-0.2-2.3-0.8-3-1.8l-0.2-0.3l1.1-1.4l0.4,0.5c0.3,0.4,0.9,1,1.7,1.2V36c-1.3-0.4-2.8-1.1-2.8-3.1    c0-1.6,1.1-2.9,2.8-3.2v-1.4H31v1.5c1,0.2,1.9,0.7,2.6,1.6l0.2,0.3L32.7,33l-0.4-0.5c-0.3-0.5-0.8-0.8-1.3-1v2.9    c1.2,0.4,2.9,1.1,2.9,3.4C33.9,39.2,33.1,40.8,31,41.2z"></path><circle cx="12" cy="28" r="2"></circle><circle cx="48" cy="42" r="2"></circle></g></g></svg>