<svg xmlns="http://www.w3.org/2000/svg" xmlns:xlink="http://www.w3.org/1999/xlink" version="1.1" x="0px" y="0px" viewBox="0 0 100 100" enable-background="new 0 0 100 100" xml:space="preserve"><g><polygon fill="#ffffff" points="49.4,62.2 49.4,77 51.4,78 53.3,77.5 53.3,62.7 51.4,63  "></polygon><polygon fill="#ffffff" points="54.4,69.3 86.7,60.8 86.7,55.2 54.4,62.6  "></polygon><path fill="#ffffff" d="M95,54.5c-0.3-0.4-4.5-6.8-6.4-7.7c-1.7-0.9-21.4-5.1-24.9-5.9c0,0,0,0,0,0c-5.4,0.1-6.7,0.8-6.7,0.8   l-0.1,0.1C51.5,43.2,40,44.3,33.1,45c-2.3,0.2-4.1,0.4-4.9,0.5c-2.1,0.3-6,4.2-7.6,5.9c0,0,0,0.1,0,0.1l15,5.7c0,0,0,0,0,0l6.7,8.5   c0,0,0,0,0.1,0l6.5-4.4c0,0,0,0,0,0l2.5-5.3c0.1-0.3,0.4-0.4,0.7-0.2c0.3,0.1,0.4,0.4,0.2,0.7l-2.2,4.7c0,0,0,0.1,0,0.1l3,0.5   c0,0,0,0,0,0l37-8.3c0,0,0,0,0,0l1.3,0.3c0,0,0,0,0,0l0.1,3.6c0,0,0,0,0,0l1,2c0,0,0.1,0,0.1,0L95,54.5C95,54.5,95,54.5,95,54.5z"></path><path fill="#ffffff" d="M14.9,47.7c-0.6,0.5-0.4,1.5,0.3,1.7l4.3,1.6c0,0,0,0,0.1,0c1.2-1.2,5.9-6.2,8.6-6.6   c0.7-0.1,2.5-0.3,4.9-0.5c6.8-0.7,18.2-1.8,23.4-3.2c0,0,0,0,0,0c0.4-0.2,1.6-0.7,5.2-0.9c0,0,0.1-0.1,0-0.1   c-1.1-0.6-3-1.5-5.6-1.8c-0.6-0.1-1.4-0.1-2.4-0.1c-6.7,0-20.9,1.9-26.7,2.9C22.1,41.6,17.2,45.7,14.9,47.7z"></path><path fill="#ffffff" d="M7.2,40.3c0-1.7,1.9-1.8,1.9-1.8V24.1l-1.9-0.5L5,24.1V61l2.2,1.2l1.9-1v-6l-1.9-0.8V40.3z"></path><path fill="#ffffff" d="M24.9,40.3c0,0,3.9-1.2,9.2-1.8c5.4-0.7,10.3-1.2,10.3-1.2l-2.2-3c-2-2.5-1.7-1.5-1.8-2.3l-0.3-1.7   c0,0-14.1,0.7-18.4,1l-2.6,1.2l2.7,3.4L24.9,40.3z"></path><path fill="#ffffff" d="M15.3,35.4c0,0.1,0.1,0.1,0.3,0.1c0.4,0,0.9-0.1,0.9-0.1l4.6,5.9l2.6-0.9l-4.3-5.6l-0.8-1.2   C18.7,33.5,15.3,34.7,15.3,35.4z"></path><path fill="#ffffff" d="M46.2,23.1c0.6,0,1,0.4,1,1v2.3c0,0.5-0.4,0.9-0.9,1l-0.4,0V37l3.8-0.3V22.5L47.9,22l-2,0.5v0.6L46.2,23.1   C46.2,23.1,46.2,23.1,46.2,23.1z"></path><path fill="#ffffff" d="M13.7,38.2H16v-1.7c-0.1,0-0.2,0-0.3,0c-0.9,0-1.3-0.6-1.4-1.2c0-0.4,0-1,1.7-1.9V28l4.3-0.2v3.2l1-0.5   l0.2-0.1l0.2,0c0.3,0,0.6,0,0.9-0.1v-2.7l4.3-0.2V30c0.7,0,1.5-0.1,2.3-0.1v-2.6l4.3-0.2v2.7c0.8,0,1.6-0.1,2.3-0.1v-2.7l4.3-0.2   v2.7c0.1,0,0.2,0,0.3,0l0.9,0l0.2,0.9l0.3,1.7c0,0,0,0,0,0c0.1,0.1,0.3,0.3,0.6,0.6v-6l4.1-0.2v-2.2l-35.9,1.6v2.6l3.5-0.2V38.2z"></path><path fill="#ffffff" d="M8.2,41.1v4.4l5.2,2c0.9-1.2,3-2.9,4.2-3.9l1-0.8c0.5-0.4,1-0.8,1.5-1.1l-1.5-1.9H9.5   C8.8,39.8,8.2,40.4,8.2,41.1z"></path><path fill="#ffffff" d="M15.1,49.4l4.4,1.7c0,0,0,0,0,0L15.1,49.4C15.1,49.4,15.1,49.4,15.1,49.4z"></path><path fill="#ffffff" d="M35,58.1l-20.3-7.7c-0.7-0.3-1.1-0.8-1.3-1.5c0,0,0-0.1,0-0.1l-5.3-2v6.8l33.8,13.2l-0.3-0.4L35,58.1z"></path><polygon fill="#ffffff" points="42.4,67 48.2,69.3 48.2,63.1 43,66.6  "></polygon><polygon fill="#ffffff" points="90.7,57.6 90.7,57.3 90.6,54.6 89.3,55 87.5,55.2 87.5,67.9 89,68.7 91.1,67.9 91.1,58.2    90.8,57.8  "></polygon></g></svg>