<svg fill="#FFFFFF" xmlns="http://www.w3.org/2000/svg" xmlns:xlink="http://www.w3.org/1999/xlink" version="1.1" x="0px" y="0px" viewBox="0 0 100 100" style="enable-background:new 0 0 100 100;" xml:space="preserve"><g><path d="M96.509,51.377c0.062-0.077,0.117-0.158,0.168-0.242c0.035-0.06,0.066-0.117,0.096-0.178   c0.045-0.092,0.079-0.188,0.11-0.287c0.019-0.061,0.041-0.118,0.055-0.18c0.029-0.129,0.044-0.264,0.049-0.401   c0.002-0.03,0.012-0.059,0.012-0.09s-0.01-0.059-0.012-0.09c-0.005-0.137-0.02-0.272-0.049-0.402   c-0.014-0.06-0.035-0.117-0.054-0.176c-0.032-0.1-0.066-0.197-0.111-0.291c-0.029-0.06-0.061-0.117-0.095-0.174   c-0.051-0.087-0.108-0.168-0.17-0.247c-0.04-0.051-0.079-0.102-0.124-0.149c-0.086-0.092-0.182-0.174-0.282-0.25   c-0.026-0.02-0.046-0.046-0.073-0.064l-12.53-8.618c-1.019-0.699-2.413-0.442-3.113,0.576s-0.442,2.412,0.575,3.112l6.596,4.535   H36.879c-1.237,0-2.238,1.002-2.238,2.238c0,1.235,1.001,2.238,2.238,2.238h50.676l-6.596,4.535   c-1.018,0.7-1.275,2.094-0.575,3.112c0.434,0.631,1.134,0.97,1.846,0.97c0.438,0,0.88-0.127,1.268-0.395l12.53-8.617   c0.025-0.018,0.044-0.042,0.068-0.061c0.103-0.077,0.2-0.16,0.287-0.253C96.429,51.48,96.468,51.429,96.509,51.377z"></path><path d="M67.629,59.759c-1.235,0-2.238,1.002-2.238,2.238v19.85c0,3.262-2.653,5.915-5.916,5.915H13.394   c-3.262,0-5.916-2.653-5.916-5.915V18.153c0-3.262,2.654-5.916,5.916-5.916h46.081c3.263,0,5.916,2.653,5.916,5.916v19.297   c0,1.236,1.003,2.238,2.238,2.238s2.238-1.002,2.238-2.238V18.153c0-5.73-4.662-10.392-10.393-10.392H13.394   c-5.73,0-10.392,4.662-10.392,10.392v63.693c0,5.729,4.662,10.392,10.392,10.392h46.081c5.73,0,10.393-4.662,10.393-10.392v-19.85   C69.867,60.761,68.864,59.759,67.629,59.759z"></path></g></svg>