<svg xmlns="http://www.w3.org/2000/svg" xmlns:xlink="http://www.w3.org/1999/xlink" version="1.1" x="0px" y="0px" viewBox="0 0 56.7 56.7" style="enable-background:new 0 0 56.7 56.7;" xml:space="preserve"><style type="text/css">
	.st0{fill:none;}
</style><path fill="#ffffff" d="M47.8,31.4v-7.9c0-1.7-1.2-2.9-2.8-2.9h-3.6c-0.8,0-1.5,0.3-2,0.8l-14-16.2c-0.5-0.6-1.3-1-2.1-1c-0.8,0-1.6,0.3-2.1,1  l-3.9,4.6c-0.5-0.6-1.2-0.9-2.1-0.9h-3.6c-1.7,0-2.8,1.2-2.8,2.9v7.9l-4,4.6c-0.7,0.8-0.9,1.9-0.4,2.9c0.4,1,1.4,1.6,2.4,1.6h2.1V38  c0,1.5,1.2,2.7,2.7,2.7h6.5l0.8,0v9.1c0,1.5,1.2,2.7,2.7,2.7h23.2c1.5,0,2.7-1.2,2.7-2.7v-9.3h2.1c1.1,0,2-0.6,2.4-1.6  c0.4-1,0.3-2.1-0.4-2.9L47.8,31.4z M14.3,37.4h-2V27.2c0-1-0.8-1.8-1.8-1.8H8.1l3.6-4.1c0.3-0.3,0.4-0.7,0.4-1.1v-8.1l2.8,0v1.2  c0,0.7,0.4,1.3,1.1,1.5c0.6,0.2,1.3,0.1,1.8-0.5l5.7-6.6l7.9,9.2c0,0,0,0-0.1,0.1L14.9,36.3C14.6,36.6,14.4,37,14.3,37.4z   M46.2,37.2c-1,0-1.8,0.8-1.8,1.8v10.2H22.3v-10c0-0.5-0.2-0.9-0.5-1.2c-0.3-0.3-0.8-0.5-1.3-0.5l-2.3-0.1l15.1-17.9l5.7,6.6  c0.4,0.5,1.2,0.7,1.8,0.5c0.6-0.2,1.1-0.8,1.1-1.5v-1.2l2.8,0V32c0,0.4,0.1,0.8,0.4,1.1l3.6,4.1H46.2z"></path></svg>