<svg xmlns="http://www.w3.org/2000/svg" xmlns:xlink="http://www.w3.org/1999/xlink" version="1.1" x="0px" y="0px" viewBox="0 0 100 100" enable-background="new 0 0 100 100" xml:space="preserve"><g><polygon fill="#a8a8a8" points="49.4,62.2 49.4,77 51.4,78 53.3,77.5 53.3,62.7 51.4,63  "></polygon><polygon fill="#a8a8a8" points="54.4,69.3 86.7,60.8 86.7,55.2 54.4,62.6  "></polygon><path fill="#a8a8a8" d="M14.9,47.7c-0.6,0.5-0.4,1.4,0.3,1.7l4.4,1.7c1.2-1.3,5.9-6.2,8.5-6.6c0.7-0.1,2.5-0.3,4.9-0.5   c6.8-0.7,18.2-1.8,23.4-3.2c0.4-0.2,1.7-0.7,5.4-0.9c-1.1-0.7-3-1.5-5.7-1.9c-0.6-0.1-1.4-0.1-2.4-0.1c-6.7,0-20.9,1.9-26.7,2.9   C22.1,41.6,17.1,45.7,14.9,47.7z"></path><path fill="#a8a8a8" d="M88.6,46.8c-1.7-0.9-21.4-5.1-24.9-5.9c-5.4,0.1-6.7,0.8-6.7,0.8l-0.1,0.1C51.5,43.2,40,44.3,33.1,45   c-2.3,0.2-4.1,0.4-4.8,0.5c-2.1,0.3-6.1,4.3-7.7,5.9l15.1,5.7l6.8,8.5l6.5-4.4l2.5-5.3c0.1-0.3,0.4-0.4,0.7-0.2   c0.3,0.1,0.4,0.4,0.2,0.7l-2.3,4.7l3.1,0.5l37-8.3l1.3,0.3l0.1,3.7l1,2.1l2.2-4.9C95,54.5,90.5,47.7,88.6,46.8z"></path><path fill="#a8a8a8" d="M7.2,40.3c0-1.7,1.9-1.8,1.9-1.8V24.1l-1.9-0.5L5,24.1V61l2.2,1.2l1.9-1v-6l-1.9-0.8V40.3z"></path><path fill="#a8a8a8" d="M32.2,33.7l3.1,4.5l1.5-0.4L35.1,35l-1.7-2.4c-0.7,0.2-2,0.7-2.1,1.1c0,0.1,0.1,0.1,0.3,0.1   C31.9,33.8,32.2,33.7,32.2,33.7z"></path><path fill="#a8a8a8" d="M49.5,31.2c0,0-6.3-0.1-10.5-0.1c-1.2,0-2.2,0-2.8,0l-1.5,0.6l0.1,0.3l0.5,0.9l2.8,4.2l0.4,0.5   c0.9-0.2,3.3-0.6,6.4-0.8c3.9-0.2,7.5-0.4,7.5-0.4l-1.4-2.2c-1.4-1.9-1.1-1.1-1.2-1.7L49.5,31.2z"></path><path fill="#a8a8a8" d="M46.2,23.1c0.6,0,1,0.4,1,1v2.3c0,0.5-0.4,0.9-0.9,1l-0.4,0v2.7c2.1,0,3.6,0,3.6,0l0.2,0v-7.7L47.9,22   l-2,0.5v0.6L46.2,23.1C46.2,23.1,46.2,23.1,46.2,23.1z"></path><path fill="#a8a8a8" d="M12,36c0,0.1,0.1,0.1,0.3,0.1c0.3,0,0.6-0.1,0.6-0.1l5,7.9l1.3-1l-3.4-5.6l-1.7-2.4   C13.4,35.2,12,35.7,12,36z"></path><path fill="#a8a8a8" d="M30.3,34.8l-0.2-1.2c0,0-6.3-0.1-10.5-0.1c-1.2,0-2.2,0-2.8,0l-1.5,0.6c0.1,0.1,0.1,0.2,0.2,0.2l0.5,0.9   l4.4,7.1c0,0,0,0,0,0c0.6-0.5,2.7-2.1,5.9-2.5c4.6-0.6,6.7-1.1,6.7-1.1l-1.4-2.2C30.2,34.6,30.4,35.4,30.3,34.8z"></path><path fill="#a8a8a8" d="M13.7,34c0,0,0.1,0,0.1,0c0,0,0,0,0,0c0.1-0.3,0.3-0.6,0.6-0.7l1.5-0.6V28l4.3-0.2v4.6c0.7,0,1.5,0,2.3,0   v-4.8l4.3-0.2v5c0.9,0,1.7,0,2.3,0v-5.2l4.3-0.2v4l0.5-0.2l1.8-0.7v-3.3l4.3-0.2v3.4c0.7,0,1.5,0,2.3,0v-3.5l4.1-0.2v-2.2   l-35.9,1.6v2.6l3.5-0.2V34z"></path><path fill="#a8a8a8" d="M8.2,41.1v4.4l5.2,2c0.8-0.9,2.2-2.2,3.4-3.2L14,39.8H9.5C8.8,39.8,8.2,40.4,8.2,41.1z"></path><polygon fill="#a8a8a8" points="90.7,57.6 90.7,57.3 90.6,54.6 89.3,55 87.5,55.2 87.5,67.9 89,68.7 91.1,67.9 91.1,58.2    90.8,57.8  "></polygon><path fill="#a8a8a8" d="M35.1,58.1l-20.3-7.7c-0.7-0.3-1.1-0.8-1.3-1.5c0,0,0-0.1,0-0.1l-5.3-2v6.8L42,66.8l-0.3-0.4L35.1,58.1z"></path><polygon fill="#a8a8a8" points="42.5,67 48.2,69.3 48.2,63.1 43.1,66.6  "></polygon></g></svg>