<svg fill="#FFFFFF" xmlns:dc="http://purl.org/dc/elements/1.1/" xmlns:cc="http://creativecommons.org/ns#" xmlns:rdf="http://www.w3.org/1999/02/22-rdf-syntax-ns#" xmlns:svg="http://www.w3.org/2000/svg" xmlns="http://www.w3.org/2000/svg" xmlns:sodipodi="http://sodipodi.sourceforge.net/DTD/sodipodi-0.dtd" xmlns:inkscape="http://www.inkscape.org/namespaces/inkscape" version="1.1" x="0px" y="0px" viewBox="0 0 100 100"><g transform="translate(0,-952.36218)"><path style="font-size:medium;font-style:normal;font-variant:normal;font-weight:normal;font-stretch:normal;text-indent:0;text-align:start;text-decoration:none;line-height:normal;letter-spacing:normal;word-spacing:normal;text-transform:none;direction:ltr;block-progression:tb;writing-mode:lr-tb;text-anchor:start;baseline-shift:baseline;opacity:1;color:#000000;fill:#FFFFFF;fill-opacity:1;stroke:none;stroke-width:4;marker:none;visibility:visible;display:inline;overflow:visible;enable-background:accumulate;font-family:Sans;-inkscape-font-specification:Sans" d="M 50 28 C 30.141437 28 14 44.14143 14 64 A 2.0002 2.0002 0 0 0 16 66 L 43.28125 66 C 43.429869 66.686845 43.689198 67.353439 44.0625 68 C 46.259797 71.8058 51.19417 73.10365 55 70.90625 C 56.921923 69.796682 58.195266 67.999899 58.71875 66 L 84 66 A 2.0002 2.0002 0 0 0 86 64 C 86 44.14143 69.85856 28 50 28 z M 50 32 C 67.013394 32 80.766096 45.25422 81.8125 62 L 58.75 62 C 58.5749 61.31816 58.305889 60.638081 57.9375 60 C 56.810277 58.0476 54.89773 56.9399 52.875 56.4375 L 40.53125 41.6875 A 2.0002 2.0002 0 0 0 38.75 41 A 2.0002 2.0002 0 0 0 37.125 43.65625 L 43.5 61.8125 C 43.482816 61.87172 43.484882 61.940419 43.46875 62 L 18.1875 62 C 19.233904 45.25422 32.986603 32 50 32 z M 49.78125 33.96875 A 2.0002 2.0002 0 0 0 48 36 L 48 42 A 2.0002 2.0002 0 1 0 52 42 L 52 36 A 2.0002 2.0002 0 0 0 49.78125 33.96875 z M 74.125 47.96875 A 2.0002 2.0002 0 0 0 73.25 48.25 L 68.0625 51.25 A 2.0020348 2.0020348 0 1 0 70.0625 54.71875 L 75.25 51.71875 A 2.0002 2.0002 0 0 0 74.125 47.96875 z M 25.65625 48.21875 A 2.0002 2.0002 0 0 0 24.78125 51.96875 L 29.96875 54.96875 A 2.0020348 2.0020348 0 1 0 31.96875 51.5 L 26.78125 48.5 A 2.0002 2.0002 0 0 0 25.84375 48.21875 A 2.0002 2.0002 0 0 0 25.65625 48.21875 z M 44.5625 52.75 L 50.0625 59.3125 A 2.0002 2.0002 0 0 0 51.40625 60.03125 C 52.657516 60.16135 53.800761 60.843 54.46875 62 C 55.58519 63.9337 54.933687 66.3211 53 67.4375 C 51.066338 68.5539 48.647659 67.9336 47.53125 66 C 46.863277 64.8431 46.861961 63.49245 47.375 62.34375 A 2.0002 2.0002 0 0 0 47.4375 60.875 L 44.5625 52.75 z " transform="translate(0,952.36218)"></path></g></svg>