<svg fill="#000000" xmlns="http://www.w3.org/2000/svg" xmlns:xlink="http://www.w3.org/1999/xlink" version="1.1" x="0px" y="0px" viewBox="0 0 100 100" enable-background="new 0 0 100 100" xml:space="preserve"><g><rect x="56.386" y="62.023" fill="none" width="6.577" height="5.513"></rect><rect x="56.386" y="70.439" fill="none" width="6.577" height="5.512"></rect><rect x="65.866" y="62.023" fill="none" width="6.577" height="5.513"></rect><path fill="none" d="M81.94,87.712V43.546l-0.416-0.348H18.476l-0.416,0.348v44.165h7.236v-27.14c0-0.801,0.65-1.452,1.452-1.452   h16.966c0.801,0,1.452,0.65,1.452,1.452v27.14H81.94z M53.483,60.571c0-0.801,0.65-1.452,1.452-1.452h18.96   c0.801,0,1.452,0.65,1.452,1.452v16.831c0,0.801-0.65,1.452-1.452,1.452h-18.96c-0.801,0-1.452-0.65-1.452-1.452V60.571z"></path><polygon fill="none" points="78.056,40.295 50,16.808 21.944,40.295  "></polygon><rect x="65.866" y="70.439" fill="none" width="6.577" height="5.512"></rect><polygon fill="none" points="43.714,90.615 26.748,90.615 16.609,90.615 12.063,90.615 12.083,91.565 87.888,91.565 87.888,90.615    83.391,90.615  "></polygon><path fill="none" d="M51.452,10.083v4.154l31.521,26.388c0.04,0.033,0.083,0.063,0.119,0.1l6.655,5.571   c0.359,0.302,0.897,0.256,1.2-0.104l0.95-1.131c0.146-0.174,0.215-0.395,0.196-0.622s-0.127-0.432-0.301-0.578L51.452,10.083z"></path><path fill="none" d="M48.549,10.083L8.207,43.862c-0.174,0.146-0.281,0.351-0.301,0.577c-0.02,0.227,0.05,0.448,0.197,0.623   l0.948,1.129c0.303,0.361,0.839,0.406,1.2,0.106l38.298-32.06V10.083z"></path><rect x="28.2" y="62.023" fill="none" width="14.062" height="25.689"></rect><path fill="#000000" d="M93.657,41.636C93.657,41.636,93.657,41.636,93.657,41.636L50.932,5.86   c-0.048-0.04-0.104-0.063-0.155-0.096c-0.055-0.035-0.103-0.079-0.163-0.107c-0.007-0.003-0.014-0.003-0.02-0.006   c-0.063-0.028-0.129-0.04-0.195-0.059c-0.066-0.019-0.131-0.046-0.199-0.055c-0.056-0.008-0.112,0-0.169-0.002   c-0.079-0.002-0.158-0.009-0.236,0.002c-0.053,0.008-0.103,0.03-0.156,0.043c-0.08,0.021-0.16,0.037-0.235,0.071   c-0.006,0.003-0.013,0.003-0.018,0.006c-0.058,0.027-0.104,0.069-0.156,0.103c-0.054,0.034-0.112,0.058-0.161,0.1L6.343,41.635   c0,0,0,0.001-0.001,0.001c-0.768,0.645-1.241,1.55-1.328,2.55c-0.088,0.999,0.219,1.973,0.865,2.743l0.948,1.129   c0.645,0.768,1.55,1.24,2.549,1.328C9.488,49.395,9.6,49.4,9.711,49.4c0.88,0,1.724-0.306,2.405-0.877l3.041-2.546v41.735h-3.094   c-1.574,0-2.854,1.281-2.854,2.854v2.451c0,0.801,0.65,1.452,1.452,1.452h78.679c0.801,0,1.452-0.65,1.452-1.452v-2.451   c0-1.574-1.281-2.854-2.854-2.854h-3.094V45.977l3.04,2.545c0.682,0.572,1.526,0.878,2.406,0.878c0.111,0,0.223-0.005,0.335-0.014   c0.999-0.088,1.904-0.559,2.548-1.327l0.95-1.131c0.645-0.768,0.952-1.743,0.864-2.742C94.898,43.186,94.426,42.281,93.657,41.636z    M50,16.808l28.056,23.487H21.944L50,16.808z M43.714,59.12H26.748c-0.801,0-1.452,0.65-1.452,1.452v27.14H18.06V43.546   l0.416-0.348h63.048l0.416,0.348v44.165H45.166v-27.14C45.166,59.77,44.515,59.12,43.714,59.12z M42.262,62.023v25.689H28.2V62.023   H42.262z M10.251,46.297c-0.361,0.301-0.897,0.255-1.2-0.106l-0.948-1.129c-0.146-0.175-0.216-0.396-0.197-0.623   c0.02-0.227,0.127-0.432,0.301-0.577l40.342-33.779v4.154L10.251,46.297z M87.888,90.615v0.95H12.083l-0.02-0.95h4.546h10.14   h16.966h39.677H87.888z M91.898,45.061l-0.95,1.131c-0.303,0.36-0.841,0.406-1.2,0.104l-6.655-5.571   c-0.037-0.037-0.079-0.067-0.119-0.1L51.452,14.237v-4.154l40.341,33.778c0.174,0.146,0.281,0.352,0.301,0.578   S92.043,44.887,91.898,45.061z"></path><path fill="#000000" d="M54.935,78.853h18.96c0.801,0,1.452-0.65,1.452-1.452V60.571c0-0.801-0.65-1.452-1.452-1.452h-18.96   c-0.801,0-1.452,0.65-1.452,1.452v16.831C53.483,78.203,54.133,78.853,54.935,78.853z M65.866,62.023h6.577v5.513h-6.577V62.023z    M65.866,70.439h6.577v5.512h-6.577V70.439z M56.386,62.023h6.577v5.513h-6.577V62.023z M56.386,70.439h6.577v5.512h-6.577V70.439z   "></path></g></svg>