<svg fill="#FFFFFF" xmlns="http://www.w3.org/2000/svg" xmlns:xlink="http://www.w3.org/1999/xlink" version="1.1" x="0px" y="0px" viewBox="0 0 100 100" enable-background="new 0 0 100 100" xml:space="preserve"><g><g><path fill="#FFFFFF" d="M80.709,73.608c-7.582,0-14.073,4.418-17.127,10.855c-0.927,2.073-3.382,2.945-5.455,1.964    c-2.018-0.982-2.891-3.382-1.964-5.455c4.364-9.218,13.745-15.545,24.545-15.545h0.327l-4.473-4.527    c-1.582-1.582-1.582-4.2,0-5.782c1.636-1.582,4.2-1.582,5.782,0L93.8,66.626c0.109,0.109,0.164,0.164,0.218,0.273    c0.273,0.327,0.491,0.655,0.655,1.036c0.327,0.764,0.382,1.636,0.273,2.4c-0.218,0.764-0.6,1.527-1.145,2.073L82.345,83.862    c-1.582,1.582-4.2,1.582-5.782,0c-1.582-1.636-1.582-4.2,0-5.782l4.473-4.473H80.709z"></path><path fill="#FFFFFF" d="M13.236,71.971L34.073,51.68l-20.891-15v34.636C13.182,71.535,13.182,71.753,13.236,71.971z     M57.309,47.808l29.236-21c-0.327-1.255-0.982-2.4-1.909-3.273c-1.309-1.364-3.109-2.182-5.127-2.182H20.436    c-3.382,0-6.218,2.345-6.982,5.509l29.236,21l3.273,2.345c1.2,0.873,2.618,1.309,3.982,1.309c1.418,0,2.782-0.436,3.982-1.309    L57.309,47.808z M68.764,60.189c-1.582,1.582-4.145,1.636-5.782,0.055l-3.818-3.709l-0.436,0.327    c-2.618,1.855-5.673,2.836-8.782,2.836c-3.055,0-6.109-0.982-8.727-2.836l-0.382-0.273L18.473,78.353    c0.6,0.164,1.255,0.273,1.964,0.273h24.109c2.291,0,4.091,1.855,4.091,4.091c0,2.291-1.8,4.091-4.091,4.091H20.436    c-4.255,0-8.127-1.745-10.909-4.527C6.691,79.499,5,75.571,5,71.317V29.153v-0.491c0-0.109,0-0.273,0-0.382v-0.055    c0.218-8.291,7.036-15.055,15.436-15.055h59.073C88.073,13.171,95,20.099,95,28.662v20.127c0,2.236-1.855,4.091-4.091,4.091    c-2.291,0-4.091-1.855-4.091-4.091V36.626L65.927,51.68l2.782,2.727C70.345,55.989,70.345,58.553,68.764,60.189z"></path></g></g></svg>