<svg fill="#000000" xmlns:dc="http://purl.org/dc/elements/1.1/" xmlns:cc="http://creativecommons.org/ns#" xmlns:rdf="http://www.w3.org/1999/02/22-rdf-syntax-ns#" xmlns:svg="http://www.w3.org/2000/svg" xmlns="http://www.w3.org/2000/svg" xmlns:sodipodi="http://sodipodi.sourceforge.net/DTD/sodipodi-0.dtd" xmlns:inkscape="http://www.inkscape.org/namespaces/inkscape" version="1.1" x="0px" y="0px" viewBox="0 0 100 100"><g transform="translate(0,-952.36218)"><path style="text-indent:0;text-transform:none;direction:ltr;block-progression:tb;baseline-shift:baseline;color:#000000;enable-background:accumulate;" d="m 13,956.36216 c -0.5236,5e-5 -0.9999,0.47642 -1,1 l 0,90.00004 c 10e-5,0.5236 0.4764,0.9999 1,1 24.6667,0 49.3333,0 74,0 0.5236,-10e-5 0.9999,-0.4764 1,-1 l 0,-64.00004 c -1e-4,-0.52358 -0.4764,-0.99995 -1,-1 l -19,0 0,-25 c -1e-4,-0.52358 -0.4764,-0.99995 -1,-1 z m 1,2 52,0 c 0,29.33648 0,58.65924 0,88.00004 l -20,0 0,-19 c -1e-4,-0.5236 -0.4764,-1 -1,-1 l -10,0 c -0.5236,0 -0.9999,0.4764 -1,1 l 0,19 -20,0 z m 5,4 c -0.5236,5e-5 -0.9999,0.47642 -1,1 l 0,10 c 10e-5,0.52358 0.4764,0.99995 1,1 l 10,0 c 0.5236,-5e-5 0.9999,-0.47642 1,-1 l 0,-10 c -10e-5,-0.52358 -0.4764,-0.99995 -1,-1 z m 16,0 c -0.5236,5e-5 -0.9999,0.47642 -1,1 l 0,10 c 1e-4,0.52358 0.4764,0.99995 1,1 l 10,0 c 0.5236,-5e-5 0.9999,-0.47642 1,-1 l 0,-10 c -1e-4,-0.52358 -0.4764,-0.99995 -1,-1 z m 16,0 c -0.5236,5e-5 -0.9999,0.47642 -1,1 l 0,10 c 1e-4,0.52358 0.4764,0.99995 1,1 l 10,0 c 0.5236,-5e-5 0.9999,-0.47642 1,-1 l 0,-10 c -1e-4,-0.52358 -0.4764,-0.99995 -1,-1 z m -31,2 8,0 0,8 -8,0 z m 16,0 8,0 0,8 -8,0 z m 16,0 8,0 0,8 -8,0 z m -33,14 c -0.5236,5e-5 -0.9999,0.47642 -1,1 l 0,10 c 10e-5,0.52358 0.4764,0.99995 1,1 l 10,0 c 0.5236,-5e-5 0.9999,-0.47642 1,-1 l 0,-10 c -10e-5,-0.52358 -0.4764,-0.99995 -1,-1 z m 16,0 c -0.5236,5e-5 -0.9999,0.47642 -1,1 l 0,10 c 1e-4,0.52358 0.4764,0.99995 1,1 l 10,0 c 0.5236,-5e-5 0.9999,-0.47642 1,-1 l 0,-10 c -1e-4,-0.52358 -0.4764,-0.99995 -1,-1 z m 16,0 c -0.5236,5e-5 -0.9999,0.47642 -1,1 l 0,10 c 1e-4,0.52358 0.4764,0.99995 1,1 l 10,0 c 0.5236,-5e-5 0.9999,-0.47642 1,-1 l 0,-10 c -1e-4,-0.52358 -0.4764,-0.99995 -1,-1 z m -31,2 8,0 0,8 -8,0 z m 16,0 8,0 0,8 -8,0 z m 16,0 8,0 0,8 -8,0 z m 16,4 18,0 0,62.00004 -18,0 z m 5,4 c -0.5236,5e-5 -0.9999,0.47642 -1,1 l 0,8 c 1e-4,0.52358 0.4764,0.99994 1,1.00004 l 8,0 c 0.5236,-10e-5 0.9999,-0.47646 1,-1.00004 l 0,-8 c -1e-4,-0.52358 -0.4764,-0.99995 -1,-1 z m 1,2 6,0 0,6 -6,0 z m -55,4 c -0.5236,5e-5 -0.9999,0.47642 -1,1 l 0,10.00004 c 10e-5,0.5236 0.4764,0.9999 1,1 l 10,0 c 0.5236,-10e-5 0.9999,-0.4764 1,-1 l 0,-10.00004 c -10e-5,-0.52358 -0.4764,-0.99995 -1,-1 z m 16,0 c -0.5236,5e-5 -0.9999,0.47642 -1,1 l 0,10.00004 c 1e-4,0.5236 0.4764,0.9999 1,1 l 10,0 c 0.5236,-10e-5 0.9999,-0.4764 1,-1 l 0,-10.00004 c -1e-4,-0.52358 -0.4764,-0.99995 -1,-1 z m 16,0 c -0.5236,5e-5 -0.9999,0.47642 -1,1 l 0,10.00004 c 1e-4,0.5236 0.4764,0.9999 1,1 l 10,0 c 0.5236,-10e-5 0.9999,-0.4764 1,-1 l 0,-10.00004 c -1e-4,-0.52358 -0.4764,-0.99995 -1,-1 z m -31,2 8,0 0,8.00004 -8,0 z m 16,0 8,0 0,8.00004 -8,0 z m 16,0 8,0 0,8.00004 -8,0 z m 21,6.00004 c -0.5236,0 -0.9999,0.4764 -1,1 l 0,8 c 1e-4,0.5236 0.4764,0.9999 1,1 l 8,0 c 0.5236,-10e-5 0.9999,-0.4764 1,-1 l 0,-8 c -1e-4,-0.5236 -0.4764,-1 -1,-1 z m 1,2 6,0 0,6 -6,0 z m -55,6 c -0.5236,0 -0.9999,0.4764 -1,1 l 0,10 c 10e-5,0.5236 0.4764,0.9999 1,1 l 10,0 c 0.5236,-10e-5 0.9999,-0.4764 1,-1 l 0,-10 c -10e-5,-0.5236 -0.4764,-1 -1,-1 z m 16,0 c -0.5236,0 -0.9999,0.4764 -1,1 l 0,10 c 1e-4,0.5236 0.4764,0.9999 1,1 l 10,0 c 0.5236,-10e-5 0.9999,-0.4764 1,-1 l 0,-10 c -1e-4,-0.5236 -0.4764,-1 -1,-1 z m 16,0 c -0.5236,0 -0.9999,0.4764 -1,1 l 0,10 c 1e-4,0.5236 0.4764,0.9999 1,1 l 10,0 c 0.5236,-10e-5 0.9999,-0.4764 1,-1 l 0,-10 c -1e-4,-0.5236 -0.4764,-1 -1,-1 z m -31,2 8,0 0,8 -8,0 z m 16,0 8,0 0,8 -8,0 z m 16,0 8,0 0,8 -8,0 z m 21,4 c -0.5236,0 -0.9999,0.4764 -1,1 l 0,8 c 1e-4,0.5236 0.4764,0.9999 1,1 l 8,0 c 0.5236,-10e-5 0.9999,-0.4764 1,-1 l 0,-8 c -1e-4,-0.5236 -0.4764,-1 -1,-1 z m 1,2 6,0 0,6 -6,0 z m -38,10 8,0 0,18 -8,0 z m 37,2 c -0.5236,0 -0.9999,0.4764 -1,1 l 0,8 c 1e-4,0.5236 0.4764,0.9999 1,1 l 8,0 c 0.5236,-10e-5 0.9999,-0.4764 1,-1 l 0,-8 c -1e-4,-0.5236 -0.4764,-1 -1,-1 z m 1,2 6,0 0,6 -6,0 z" fill="#000000" fill-opacity="1" stroke="none" marker="none" visibility="visible" display="inline" overflow="visible"></path></g></svg>